<?xml version="1.0" encoding="utf-8"?>
<!-- Generator: Adobe Illustrator 21.1.0, SVG Export Plug-In . SVG Version: 6.00 Build 0)  -->
<svg version="1.1" id="Layer_1" xmlns="http://www.w3.org/2000/svg" xmlns:xlink="http://www.w3.org/1999/xlink" x="0px" y="0px"
	 viewBox="0 0 64 48" style="enable-background:new 0 0 64 48;" xml:space="preserve">
<style type="text/css">
	.st0{fill:#722878;}
	.st1{fill:#FFF200;}
</style>
<g>
	<path class="st0" d="M55.9,29.1c-0.2,1-1.4,1.4-3.1,1.4c-4.6,0-12.7-3-13.4-3.2c0.8,0.4,15,7.2,12.8,10.5c-0.3,0.4-0.8,0.6-1.4,0.6
		c-3.7,0-12-7.6-13-8.5c-0.1-0.1-0.1-0.1-0.1-0.1s0,0,0.1,0.1c1.1,1.2,11,12.2,7.8,14.4c-0.3,0.1-0.5,0.2-0.8,0.2
		c-3.4,0-9.1-11.7-9.7-12.9c0.5,1.3,5.7,15.6,1.8,16.4h-0.3C32.8,48,32,32.2,32,32.2S31.2,48,27.4,48h-0.3
		c-3.9-0.9,1.2-15.1,1.7-16.4c-0.6,1.2-6.3,12.9-9.7,12.9c-0.3,0-0.6,0-0.8-0.2c-3.4-2.3,7.9-14.6,7.9-14.6s-9.2,8.6-13.1,8.6
		c-0.6,0-1.1-0.2-1.4-0.6c-2.2-3.3,11.9-10.2,12.8-10.6c-0.6,0.2-8.8,3.2-13.4,3.2c-1.7,0-2.9-0.4-3.1-1.4c-0.8-4,15.8-4.9,15.8-4.9
		S7.2,23.1,8.1,18.9c0.2-1,1.4-1.4,3.1-1.4c4.5,0,12.3,2.8,13.3,3.2C23.2,20,9.6,13.4,11.8,10.2c0.3-0.4,0.8-0.6,1.4-0.6
		c3.7,0,12,7.6,13,8.5c0.1,0.1,0.1,0.1,0.1,0.1s0,0-0.1-0.1c-1.1-1.2-11-12.2-7.8-14.4c0.3-0.1,0.5-0.2,0.8-0.2
		c3.5,0,9.3,12.2,9.7,13C28.6,15.6,23.1,0.8,27.1,0h0.3C31.2,0,32,15.8,32,15.8S32.8,0,36.6,0h0.3c4,0.9-1.4,15.6-1.7,16.5
		c0.4-0.8,6.2-13,9.7-13c0.3,0,0.6,0,0.8,0.2c3.2,2.2-6.8,13.6-7.9,14.8c-0.1,0.1-0.1,0.1-0.1,0.1s0,0,0.1-0.1c1-0.9,9.3-8.5,13-8.5
		c0.6,0,1.1,0.2,1.4,0.6c2.2,3.2-11.4,9.8-12.7,10.5c1-0.3,8.8-3.2,13.3-3.2c1.7,0,2.9,0.4,3.1,1.4c0.9,4-15.8,4.9-15.8,4.9
		S56.7,25,55.9,29.1z"/>
	<circle class="st1" cx="32" cy="24" r="7.3"/>
</g>
</svg>
