<?xml version="1.0" encoding="utf-8"?>
<!-- Generator: Adobe Illustrator 21.1.0, SVG Export Plug-In . SVG Version: 6.00 Build 0)  -->
<svg version="1.1" id="Layer_2" xmlns="http://www.w3.org/2000/svg" xmlns:xlink="http://www.w3.org/1999/xlink" x="0px" y="0px"
	 viewBox="0 0 64 48" style="enable-background:new 0 0 64 48;" xml:space="preserve">
<style type="text/css">
	.st0{fill:#9E8B6B;}
	.st1{fill:#8F1A22;}
	.st2{fill:#BE1E2D;}
</style>
<g>
	<path class="st0" d="M31.2,5.5L31.2,5.5c0.1-0.1,0.1-0.1,0.1-0.2l0,0l0,0l0,0h0.1c0,0,0-0.1,0.1-0.1V5.1c0-0.1,0-0.1,0-0.2
		s-0.1-0.3-0.2-0.4s-0.2-0.3-0.4-0.4c-0.3-0.3-0.7-0.6-1.1-0.8c-0.5-0.3-1-0.5-1.6-0.7s-1.3-0.4-1.9-0.5c-0.7-0.1-1.4-0.2-2.1-0.2
		S22.7,2,22,2.1c-0.7,0.1-1.4,0.4-2,0.6c-0.6,0.3-1.2,0.6-1.7,1.1c-0.5,0.4-0.9,0.9-1.3,1.4c-0.3,0.5-0.6,0.9-0.9,1.5
		C16,7,15.8,7.5,15.6,8c-0.1,0.4-0.2,0.8-0.3,1.1l-0.1,0.4v0.3c0,0.2,0,0.3,0,0.3l0,0c0,0.7-0.5,1.3-1.2,1.3s-1.3-0.5-1.3-1.2
		c0-0.1,0-0.2,0-0.2c0-0.1,0-0.2,0-0.2s0-0.1,0.1-0.3c0-0.2,0.1-0.5,0.2-0.9c0.1-0.4,0.2-0.8,0.4-1.3c0.2-0.6,0.4-1.1,0.7-1.7
		s0.7-1.2,1.2-1.8s1.1-1.2,1.7-1.7c0.7-0.5,1.4-0.9,2.2-1.3c0.8-0.3,1.6-0.6,2.5-0.7C22.6,0,23.4,0,24.3,0c0.8,0,1.6,0.1,2.4,0.3
		c0.8,0.1,1.5,0.3,2.2,0.6c0.7,0.2,1.3,0.5,1.9,0.9c0.5,0.3,1,0.7,1.5,1.1c0.2,0.2,0.4,0.4,0.6,0.6C33,3.6,33.2,3.8,33.3,4
		c0.1,0.1,0.1,0.2,0.2,0.3c0.1,0.1,0.1,0.2,0.2,0.3s0.1,0.2,0.2,0.3L34,5v0.1l0.1,0.1l0,0l0,0l0.1,0.1l0.1,0.1
		c0.9,0.8,0.9,2.2,0.1,3.1c-0.8,0.9-2.2,0.9-3.1,0.1S30.4,6.4,31.2,5.5L31.2,5.5z"/>
	<g>
		<path class="st1" d="M45.1,44.6c-3.9-0.5-8.2,0.2-11.6-3c-0.9-0.8-3.5-4.5,0-8.1s7.2-1.1,8.1-0.3C45,36.4,44.5,40.6,45.1,44.6z"/>
		<path class="st1" d="M20.5,45c3.9-0.6,8.2-0.1,11.4-3.5c0.8-0.9,3.4-4.6-0.3-8.1s-7.3-0.9-8.1,0C20.3,36.8,21,41.1,20.5,45z"/>
		<path class="st2" d="M32.9,48C28.2,44,26,36.7,26,36.7s-7.4,4.8-12-2.9c11-5.2,9.2-11.9,9.6-18.9c0.4-7,2.9-10.6,8.5-10.7
			c5.6-0.1,8.2,3.4,8.8,10.3S40,28.4,51.2,33.2C47,41,39.4,36.5,39.4,36.5S37.4,43.9,32.9,48z"/>
	</g>
</g>
</svg>
