<?xml version="1.0" encoding="utf-8"?>
<!-- Generator: Adobe Illustrator 21.1.0, SVG Export Plug-In . SVG Version: 6.00 Build 0)  -->
<svg version="1.1" id="Layer_1" xmlns="http://www.w3.org/2000/svg" xmlns:xlink="http://www.w3.org/1999/xlink" x="0px" y="0px"
	 viewBox="0 0 64 48" style="enable-background:new 0 0 64 48;" xml:space="preserve">
<style type="text/css">
	.st0{fill:#085603;}
	.st1{fill:#9E8B6B;}
</style>
<path class="st0" d="M31.7,19.1l-0.6,0.8l-1.8-2.3c-0.1,0.2-0.4,0.3-0.6,0.3c-0.5,0-1.1-0.3-1.7-0.3c-0.2,0-0.5,0.1-0.8,0.3
	c-1,0.9-4.1,1.2-4.1,1.2c1.8-1,1.7-1.7,2.3-2.6c0.7-1.2,1.6-1.6,2.5-1.6c1.7,0,3.2,1.5,3.1,1.6C29.3,17.3,31.7,19.1,31.7,19.1z"/>
<path class="st0" d="M23.7,28.8c-0.3,0.6-0.6,1-0.7,1.2c-0.4-0.5-3.2-3.8-3.1-7c0,0,0.6-1.4-0.2-3.7c0,0,2.9,2.2,4,4.4
	C23.7,23.7,25.3,26.2,23.7,28.8z"/>
<path class="st1" d="M34.6,12.4c0,0-0.1,5.4-7.5,11c-5,3.8-6.4,11-5.7,13.8c0.7,2.9-1.1,6.9-2,8c-0.4,0.5-1.7,1.9-1.7,1.9H23
	c0,0-1.7-1.3-1.3-2.1c0,0,1.5-2.7,1.4-5.2s-2.4-7,6.3-16.8c0,0,5.4-5.4,6-10.6C35.4,12.4,35.2,11.6,34.6,12.4z"/>
<path class="st0" d="M45.6,14.5c0,0.1-0.4,1.3-2.6,1.3c-0.9,0-2.2-0.2-4-0.8c-0.5-0.1-0.9-0.2-1.3-0.2c-1,0-1.9,0.5-3.6,1
	c0,0,1.3-1.9,2.2-2.6c0.5-0.4,1.2-0.9,2.3-0.9c0.8,0,1.9,0.4,3.2,1.1c0.5,0.4,1.5,1.6,2.6,1.6C44.8,15,45.2,14.9,45.6,14.5z"/>
<path class="st0" d="M39,29.4c-2.7-0.5-4.2-3.8-4.2-3.8C34,23.7,29.4,23,29.4,23l-0.3-0.4c0,0,0.5-0.4,0.6-0.5
	c0.1-0.1,0.2,0.2,0.4,0.1c1-0.3,1.6-0.4,2.4-0.4c3.5,0,4.4,3.3,4.3,3.3C36.7,26.9,39,29.4,39,29.4z"/>
<path class="st0" d="M34.8,12.7h-0.4c-1.7,0-2.6-1.3-2.8-2.8c-0.3-1.6-2.4-3.8-2.4-3.8c4.7,0.3,5.5,3.7,5.6,4.5
	C34.9,11.5,34.8,12.7,34.8,12.7z"/>
<path class="st0" d="M41.1,0.2c0,0-0.5,4.3-0.7,5.3c-1.6,5.9-5.4,7.3-5.4,7.3S34.7,9,35,7.1C35.2,5.2,36.5,4,37.8,3
	S39.6,2.1,41.1,0.2z"/>
<path class="st0" d="M32.7,42.8c-2-0.1-4-1.1-5.4-2.6c-1.1-1.2-1.7-1.5-2.1-1.5c-0.1,0-0.2,0.1-0.3,0.1c-0.2,0-0.5,0.1-0.8,0.1
	c-0.7,0-1.4-0.2-1.8-1c-0.4-1,1.1-1.9,2.6-1.9c0.2,0,0.3,0,0.3,0c1.6,0.1,3.6,0.4,4.5,3C30.6,41.6,30.9,42.1,32.7,42.8z"/>
</svg>
