<?xml version="1.0" encoding="utf-8"?>
<!-- Generator: Adobe Illustrator 21.1.0, SVG Export Plug-In . SVG Version: 6.00 Build 0)  -->
<svg version="1.1" id="Layer_2" xmlns="http://www.w3.org/2000/svg" xmlns:xlink="http://www.w3.org/1999/xlink" x="0px" y="0px"
	 viewBox="0 0 64 48" style="enable-background:new 0 0 64 48;" xml:space="preserve">
<style type="text/css">
	.st0{fill:#085603;stroke:#104804;stroke-linecap:square;stroke-linejoin:round;stroke-miterlimit:10;}
	.st1{fill:#9D912E;}
</style>
<path class="st0" d="M29.1,22.2c0,0,1.6-4.7,6.5-8.2s14-1.4,15.2-1.8c1.2-0.3,2.8,0,3.7-2.1c0.9,2.1-1,3.2-3.5,4s-10.1,3.7-10,6.7
	s-1.4,7.2-6.1,7.5C30.1,28.6,28.6,24.5,29.1,22.2z"/>
<path class="st0" d="M33.2,30.3c0,0-1.3,2.4-0.9,4.2c0.4,1.9,3,2.7,9.3-1s14.6-15.4,14.6-15.4s-12.2,0-17.9,2.3s-7.2,5-7.4,6.7
	S32.9,28.8,33.2,30.3z"/>
<path class="st0" d="M31.7,21.4c0,0-2.7-5.9-11.3-5.9c-7.7,0-12.8,6.8-12.8,6.8c1.8-1,10.9-1.4,12.6,5.3s8.7,5,11.5,2.3
	S33.5,24.3,31.7,21.4z"/>
<path class="st1" d="M32.3,28.7c-0.3,0-0.6-0.1-0.9-0.2c-1.3-0.5-1.9-2-1.4-3.2l0,0c0.5-1.3,1.7-5.5,0.8-7.9
	c-0.3-0.8-0.7-1.5-1.2-2.3c-1.6-2.9-3.7-6.5-1.1-13.2C29,0.6,30.4,0,31.7,0.5C33,1,33.6,2.4,33.1,3.7c-1.7,4.4-0.6,6.3,0.8,8.9
	c0.5,0.9,1.1,1.9,1.5,3c1.8,4.7-0.5,10.8-0.8,11.5C34.2,28.1,33.3,28.7,32.3,28.7z"/>
<path class="st0" d="M34.2,28.6c0,0-2.4,0.1-3.9,1.4s-1.5,3.8,3.5,7.1s17.3,4.1,17.3,4.1s-3.6-10-7.1-13.4c-3.6-3.5-6.4-3.3-7.9-2.6
	C34.6,25.8,35.4,27.5,34.2,28.6z"/>
<path class="st0" d="M29.6,24.9c-0.9-0.6-4.3-2.3-8.8-1.1s-7.2,5.4-12.2,6.1c5.1-0.1,9.1,3.8,13.2,3.4s7.9-2.2,8.7-4.5
	C31.4,26.4,30.4,25.5,29.6,24.9z"/>
<path class="st0" d="M27.2,26.6c-1,0.2-4.7,1.3-7.1,5.3s-1.4,8.9-4.5,12.9c3.6-3.6,9.2-3.7,11.8-6.8s5.1-8.1,4.1-10.4
	S28.2,26.4,27.2,26.6z"/>
</svg>
