<?xml version="1.0" encoding="utf-8"?>
<!-- Generator: Adobe Illustrator 21.1.0, SVG Export Plug-In . SVG Version: 6.00 Build 0)  -->
<svg version="1.1" id="Layer_1" xmlns="http://www.w3.org/2000/svg" xmlns:xlink="http://www.w3.org/1999/xlink" x="0px" y="0px"
	 viewBox="0 0 64 48" style="enable-background:new 0 0 64 48;" xml:space="preserve">
<style type="text/css">
	.st0{fill:url(#SVGID_1_);stroke:#192B19;stroke-miterlimit:10;}
	.st1{fill:url(#SVGID_2_);stroke:#192B19;stroke-miterlimit:10;}
	.st2{fill:url(#SVGID_3_);stroke:#192B19;stroke-miterlimit:10;}
	.st3{fill:url(#SVGID_4_);stroke:#192B19;stroke-miterlimit:10;}
	.st4{fill:#9E8B6B;stroke:#9E8B6B;stroke-miterlimit:10;}
	.st5{fill:url(#SVGID_5_);stroke:#192B19;stroke-miterlimit:10;}
	.st6{fill:url(#SVGID_6_);stroke:#192B19;stroke-miterlimit:10;}
	.st7{fill:url(#SVGID_7_);stroke:#192B19;stroke-miterlimit:10;}
	.st8{fill:url(#SVGID_8_);stroke:#192B19;stroke-miterlimit:10;}
	.st9{fill:url(#SVGID_9_);}
	.st10{fill:#192B19;}
</style>
<g>
	<linearGradient id="SVGID_1_" gradientUnits="userSpaceOnUse" x1="23.7106" y1="37.7062" x2="27.6402" y2="37.7062">
		<stop  offset="0" style="stop-color:#1C3F1D"/>
		<stop  offset="0.3083" style="stop-color:#204923"/>
		<stop  offset="0.7164" style="stop-color:#235329"/>
		<stop  offset="1" style="stop-color:#24572B"/>
	</linearGradient>
	<path class="st0" d="M27.5,39.8c0,0,0.8-1.8-1.7-3.1c0,0-1.6-1.3-2.1-2.3c0,0-0.2,3.9,0.1,4.2c0.3,0.3,0.2,2.1,2.6,2.3
		C26.4,40.9,27.1,41.4,27.5,39.8"/>
	<linearGradient id="SVGID_2_" gradientUnits="userSpaceOnUse" x1="32.3834" y1="24.9032" x2="40.265" y2="24.9032">
		<stop  offset="0" style="stop-color:#1C3F1D"/>
		<stop  offset="0.3083" style="stop-color:#204923"/>
		<stop  offset="0.7164" style="stop-color:#235329"/>
		<stop  offset="1" style="stop-color:#24572B"/>
	</linearGradient>
	<path class="st1" d="M33.1,25.6c0,0,1.8-3.3,7.1-3.1c0,0-1.5,1.9-2,2.2c0,0-1.9,3.1-4.7,2.5C33.6,27.2,31.2,27.7,33.1,25.6"/>
	<linearGradient id="SVGID_3_" gradientUnits="userSpaceOnUse" x1="26.6043" y1="19.0077" x2="33.0918" y2="19.0077">
		<stop  offset="0" style="stop-color:#1C3F1D"/>
		<stop  offset="0.3083" style="stop-color:#204923"/>
		<stop  offset="0.7164" style="stop-color:#235329"/>
		<stop  offset="1" style="stop-color:#24572B"/>
	</linearGradient>
	<path class="st2" d="M32.5,18.7c0,0-1.2-1.2-2.6-1.8c0,0-1.8-0.3-3.3-0.6c0,0,2.7,2.5,2.7,4c0,0,1.1,1.7,3.1,1.5
		C32.4,21.7,33.9,20.3,32.5,18.7z"/>
	<linearGradient id="SVGID_4_" gradientUnits="userSpaceOnUse" x1="30.7954" y1="4.527" x2="40.2894" y2="4.527">
		<stop  offset="0" style="stop-color:#1C3F1D"/>
		<stop  offset="0.3083" style="stop-color:#204923"/>
		<stop  offset="0.7164" style="stop-color:#235329"/>
		<stop  offset="1" style="stop-color:#24572B"/>
	</linearGradient>
	<path class="st3" d="M31.1,4.9c0,0,0.1-2.7,5.2-1.9c0,0,1.5-0.3,3-1.4c0,0,0.5-0.2,1.1-0.2c0,0-1.5,1.5-2.6,2.3
		c0,0-0.7,0.7-1.8,2.1c0,0-1.1,2.6-3.8,1.7c-2.7-1,0,0,0,0S30.1,6.4,31.1,4.9"/>
	<path class="st4" d="M26.3,0.8c0,0,12.3,9.2,1.9,37.8l-0.5,1c-2.3,2.9-2.5,7.2-2.5,7.2s0.3-0.1-1,1c0,0,2.2,0.7,3.1-1.6
		c0,0-1.7-0.6,1.7-7.1l0.3-0.7c11.2-27.2-1.5-38.1-1.5-38.1"/>
	<linearGradient id="SVGID_5_" gradientUnits="userSpaceOnUse" x1="26.1146" y1="10.6829" x2="31.6019" y2="10.6829">
		<stop  offset="0" style="stop-color:#1C3F1D"/>
		<stop  offset="0.3083" style="stop-color:#204923"/>
		<stop  offset="0.7164" style="stop-color:#235329"/>
		<stop  offset="1" style="stop-color:#24572B"/>
	</linearGradient>
	<path class="st5" d="M30.1,6c0,0-4.5-0.6-3.6,4.4c0,0,0.4,2-0.3,4.5l-0.1,0.6c0,0,2.7-3.9,2.9-3.9c0,0,2.4-1.9,2.5-2.6
		C31.7,8.2,31.5,5.9,30.1,6"/>
	<linearGradient id="SVGID_6_" gradientUnits="userSpaceOnUse" x1="33.0043" y1="23.723" x2="39.5274" y2="23.723">
		<stop  offset="0" style="stop-color:#1C3F1D"/>
		<stop  offset="0.3083" style="stop-color:#204923"/>
		<stop  offset="0.7164" style="stop-color:#235329"/>
		<stop  offset="1" style="stop-color:#24572B"/>
	</linearGradient>
	<path class="st6" d="M34.3,20.3c0,0,3.5-0.5,4.4,4.1c0,0,0.1,1.9,0.9,2.8c0,0-6-2.9-6.4-5.6C33.1,21.6,32.5,20,34.3,20.3z"/>
	<linearGradient id="SVGID_7_" gradientUnits="userSpaceOnUse" x1="26.6043" y1="29.8115" x2="31.5247" y2="29.8115">
		<stop  offset="0" style="stop-color:#1C3F1D"/>
		<stop  offset="0.3083" style="stop-color:#204923"/>
		<stop  offset="0.7164" style="stop-color:#235329"/>
		<stop  offset="1" style="stop-color:#24572B"/>
	</linearGradient>
	<path class="st7" d="M31.5,28c0,0-0.2-0.5-0.6-0.9c-0.6-0.7-1.7-1.1-3,1.8c0,0,0.3,0.6-0.9,3.8L26.6,33c0,0,2.7-2.2,3.4-2.2
		C30,30.8,31.9,29.9,31.5,28z"/>
	<linearGradient id="SVGID_8_" gradientUnits="userSpaceOnUse" x1="30.8755" y1="27.2467" x2="31.5247" y2="27.2467">
		<stop  offset="0" style="stop-color:#1C3F1D"/>
		<stop  offset="0.3083" style="stop-color:#204923"/>
		<stop  offset="0.7164" style="stop-color:#235329"/>
		<stop  offset="1" style="stop-color:#24572B"/>
	</linearGradient>
	<polygon class="st8" points="31.5,27 30.9,27.1 31.2,27.5 	"/>
	<g>
		<linearGradient id="SVGID_9_" gradientUnits="userSpaceOnUse" x1="27.6851" y1="42.4863" x2="30.8836" y2="42.4863">
			<stop  offset="0" style="stop-color:#1C3F1D"/>
			<stop  offset="0.3083" style="stop-color:#204923"/>
			<stop  offset="0.7164" style="stop-color:#235329"/>
			<stop  offset="1" style="stop-color:#24572B"/>
		</linearGradient>
		<path class="st9" d="M30.5,45c-0.2-0.5-0.5-0.9-0.7-1.2l0-0.1l-0.1,0c-0.8-0.6-2.1-1.9-2-2.7c0-0.1,0.1-0.4,0.7-0.7
			c0,0,0.5-0.2,1-0.2c0.4,0,0.7,0.1,0.9,0.3c0.4,0.4,0.6,1.3,0.5,2.5C30.6,43.2,30.5,43.9,30.5,45z"/>
		<path class="st10" d="M29.5,40.5c0.3,0,0.4,0.1,0.5,0.2c0.1,0.1,0.4,0.6,0.4,2c-0.1,0.2-0.2,0.4-0.2,0.7l-0.1-0.1L30,43.2
			c-0.9-0.7-1.8-1.8-1.8-2.2c0-0.1,0.1-0.2,0.5-0.3C28.8,40.6,29.1,40.5,29.5,40.5 M29.4,39.5c-0.7,0-1.2,0.3-1.2,0.3
			C25.3,41,29.4,44,29.4,44c0.6,0.8,1.7,3.3,1.7,3.3c-0.3-4,0.3-4.3,0.3-4.3C31.5,40.1,30.4,39.5,29.4,39.5L29.4,39.5z"/>
	</g>
</g>
</svg>
