<?xml version="1.0" encoding="utf-8"?>
<!-- Generator: Adobe Illustrator 21.1.0, SVG Export Plug-In . SVG Version: 6.00 Build 0)  -->
<svg version="1.1" id="Layer_2" xmlns="http://www.w3.org/2000/svg" xmlns:xlink="http://www.w3.org/1999/xlink" x="0px" y="0px"
	 viewBox="0 0 64 48" style="enable-background:new 0 0 64 48;" xml:space="preserve">
<style type="text/css">
	.st0{fill:url(#SVGID_1_);}
	.st1{fill:url(#SVGID_2_);}
	.st2{fill:url(#SVGID_3_);}
	.st3{fill:url(#SVGID_4_);}
	.st4{fill:url(#SVGID_5_);}
	.st5{fill:url(#SVGID_6_);}
</style>
<g id="radial_simetrical">
	
		<linearGradient id="SVGID_1_" gradientUnits="userSpaceOnUse" x1="162.7784" y1="501.8588" x2="184.367" y2="501.8588" gradientTransform="matrix(-0.25 -0.97 -0.97 0.25 562.4 53.49)">
		<stop  offset="0" style="stop-color:#732A43"/>
		<stop  offset="0.53" style="stop-color:#721C3E"/>
		<stop  offset="1" style="stop-color:#71153B"/>
	</linearGradient>
	<path class="st0" d="M31.8,22.1c0,0,0-2.9-4.6-5.2c0,0-4.1-2.9-1.8-11.8c0,0,2-6.8,6.6-3.9c4.6-2.9,6.6,3.9,6.6,3.9
		c2.3,8.9-1.8,11.8-1.8,11.8c-4.6,2.3-4.6,5.2-4.6,5.2L31.8,22.1z"/>
	
		<linearGradient id="SVGID_2_" gradientUnits="userSpaceOnUse" x1="165.5091" y1="392.8599" x2="187.0899" y2="392.8599" gradientTransform="matrix(-1 -6.000000e-02 -6.000000e-02 1 218.26 -361.57)">
		<stop  offset="0" style="stop-color:#732A43"/>
		<stop  offset="0.53" style="stop-color:#721C3E"/>
		<stop  offset="1" style="stop-color:#71153B"/>
	</linearGradient>
	<path class="st1" d="M29,24.7c0,0-2.7-0.9-6.3,2.8c0,0-4,2.9-11.8-2c0,0-5.8-4-1.6-7.5C8,12.8,15,12.9,15,12.9
		c9.2,0.6,10.7,5.3,10.7,5.3c0.7,5.1,3.5,5.9,3.5,5.9L29,24.7z"/>
	
		<linearGradient id="SVGID_3_" gradientUnits="userSpaceOnUse" x1="61.7451" y1="357.8781" x2="83.3206" y2="357.8781" gradientTransform="matrix(-0.37 0.93 0.93 0.37 -282.82 -162.54)">
		<stop  offset="0" style="stop-color:#732A43"/>
		<stop  offset="0.53" style="stop-color:#721C3E"/>
		<stop  offset="1" style="stop-color:#71153B"/>
	</linearGradient>
	<path class="st2" d="M30.3,28.1c0,0-1.7,2.3,0.7,6.9c0,0,1.6,4.8-5.5,10.6c0,0-5.6,4.3-7.6-0.7c-5.4-0.3-3.1-7-3.1-7
		c3.4-8.5,8.4-8.5,8.4-8.5c5.1,0.9,6.7-1.5,6.7-1.5L30.3,28.1z"/>
	
		<linearGradient id="SVGID_4_" gradientUnits="userSpaceOnUse" x1="-2.0932" y1="446.8597" x2="19.4876" y2="446.8597" gradientTransform="matrix(0.77 0.63 0.63 -0.77 -248.38 375.53)">
		<stop  offset="0" style="stop-color:#732A43"/>
		<stop  offset="0.53" style="stop-color:#721C3E"/>
		<stop  offset="1" style="stop-color:#71153B"/>
	</linearGradient>
	<path class="st3" d="M34,27.8c0,0,1.7,2.4,6.7,1.5c0,0,5,0,8.4,8.5c0,0,2.3,6.7-3.1,7c-2,5-7.6,0.7-7.6,0.7
		c-7-5.8-5.4-10.6-5.4-10.6c2.4-4.5,0.7-6.9,0.7-6.9L34,27.8z"/>
	
		<linearGradient id="SVGID_5_" gradientUnits="userSpaceOnUse" x1="60.6988" y1="534.4337" x2="82.2796" y2="534.4337" gradientTransform="matrix(0.84 -0.54 -0.54 -0.84 274 509.04)">
		<stop  offset="0" style="stop-color:#732A43"/>
		<stop  offset="0.53" style="stop-color:#721C3E"/>
		<stop  offset="1" style="stop-color:#71153B"/>
	</linearGradient>
	<path class="st4" d="M34.9,24.2c0,0,2.8-0.9,3.5-5.9c0,0,1.5-4.8,10.7-5.3c0,0,7.1-0.2,5.7,5.1c4.2,3.4-1.6,7.5-1.6,7.5
		c-7.8,4.9-11.8,2-11.8,2c-3.6-3.7-6.3-2.8-6.3-2.8L34.9,24.2z"/>
	
		<radialGradient id="SVGID_6_" cx="31.7486" cy="38.9" r="7.2448" gradientTransform="matrix(1 0 0 1 0 -14)" gradientUnits="userSpaceOnUse">
		<stop  offset="0" style="stop-color:#FFD03F"/>
		<stop  offset="0.58" style="stop-color:#FEBE30"/>
		<stop  offset="1" style="stop-color:#FDB72A"/>
	</radialGradient>
	<circle class="st5" cx="31.7" cy="24.9" r="7.3"/>
</g>
</svg>
