<svg width="80" height="80" viewBox="0 0 80 80" fill="none" xmlns="http://www.w3.org/2000/svg">
<g filter="url(#filter0_d_23_1635)">
<g filter="url(#filter1_d_23_1635)">
<circle cx="40" cy="36" r="36" fill="#F7F0E9"/>
</g>
<circle cx="40" cy="36" r="29.9368" fill="#FFFCF9"/>
<g filter="url(#filter2_d_23_1635)">
<path d="M40.8345 35.723C40.0069 36.1884 39.0389 36.2659 38.1116 36.5539C34.6591 37.6784 32.6821 41.3577 29.3496 42.7648C26.7006 43.8654 23.4238 43.296 21.3847 41.3304C20.5241 40.4916 19.8666 39.4608 19.3274 38.3635C18.5148 36.6418 17.9979 34.754 17.83 32.8643C17.8006 32.2584 17.8819 31.4345 18.5137 31.3127C18.7834 31.2389 19.0475 31.3627 19.3505 31.3479C19.6072 31.3202 19.9157 31.1079 19.8419 30.8382C19.7883 30.6738 19.5242 30.55 19.5759 30.3653C19.6148 30.2267 19.7662 30.2193 19.8845 30.1529C20.2391 29.9534 20.1044 29.3678 19.8458 29.0464C19.5872 28.725 19.2234 28.4238 19.2013 27.9694C19.2254 27.5279 19.665 27.2029 19.8738 26.8132C19.9847 26.5952 20.0032 26.3514 20.0217 26.1076C20.1936 24.9605 20.8329 23.7451 21.9579 23.4626C22.1685 23.422 22.4252 23.3944 22.5693 23.2355C22.7134 23.0767 22.7781 22.8458 22.9222 22.6869C23.2825 22.2899 24.0545 22.5559 24.3224 22.133C24.4074 22.0074 24.4001 21.8559 24.5183 21.7894C24.7344 21.5512 25.1703 21.7729 25.4992 21.6658C25.6045 21.6455 25.7227 21.579 25.7947 21.4996C26.3526 21.1081 27.11 21.0712 27.7694 21.2061C28.4288 21.3411 29.0827 21.6737 29.6904 21.9933C34.6719 24.8331 38.6741 29.3906 40.6388 34.8216C40.7588 35.1042 40.8992 35.4921 40.8345 35.723Z" fill="#C8A7CF"/>
<path d="M40.5794 36.0998C40.114 35.2722 40.0366 34.3043 39.7486 33.3769C38.6241 29.9244 34.9447 27.9474 33.5376 24.6149C32.4371 21.9659 33.0064 18.6891 34.9721 16.6501C35.8108 15.7894 36.8416 15.1319 37.9389 14.5927C39.6606 13.7802 41.5485 13.2632 43.4382 13.0953C44.0441 13.0659 44.8679 13.1473 44.9897 13.779C45.0636 14.0487 44.9398 14.3128 44.9545 14.6158C44.9693 14.9187 45.1946 15.181 45.4643 15.1072C45.6287 15.0536 45.7525 14.7895 45.9372 14.8413C46.0757 14.8801 46.0831 15.0315 46.1496 15.1498C46.349 15.5045 46.9346 15.3697 47.2561 15.1111C47.5775 14.8526 47.8786 14.4887 48.3331 14.4666C48.7745 14.4907 49.0996 14.9303 49.5355 15.1521C49.7534 15.2629 49.9973 15.2814 50.2411 15.2999C51.3882 15.4719 52.6035 16.1112 52.886 17.2361C52.9266 17.4467 52.9543 17.7035 53.1131 17.8476C53.272 17.9917 53.5029 18.0564 53.6617 18.2005C54.0588 18.5607 53.7927 19.3328 54.2157 19.6007C54.3413 19.6857 54.4927 19.6783 54.5592 19.7965C54.7975 20.0127 54.5758 20.4486 54.6828 20.7774C54.7031 20.8827 54.7696 21.0009 54.8491 21.073C55.2406 21.6309 55.2774 22.3882 55.1425 23.0477C55.0076 23.7071 54.675 24.3609 54.3553 24.9686C51.5156 29.9501 46.958 33.9524 41.5271 35.917C41.2444 36.0371 40.8103 36.1645 40.5794 36.0998Z" fill="#B78EC0"/>
<path d="M39.4342 36.277C40.2618 35.8116 41.2297 35.7341 42.157 35.4461C45.6096 34.3216 47.5865 30.6423 50.919 29.2352C53.568 28.1346 56.8449 28.704 58.8839 30.6696C59.7446 31.5084 60.402 32.5392 60.9413 33.6365C61.7538 35.3582 62.2708 37.2461 62.4386 39.1358C62.4681 39.7416 62.3867 40.5655 61.755 40.6873C61.4853 40.7611 61.2211 40.6374 60.9182 40.6521C60.6614 40.6798 60.3529 40.8921 60.4268 41.1618C60.4803 41.3263 60.7445 41.4501 60.6927 41.6348C60.6539 41.7733 60.5024 41.7807 60.3842 41.8471C60.0295 42.0466 60.1643 42.6322 60.4228 42.9536C60.6814 43.2751 61.0453 43.5762 61.0674 44.0306C61.0895 44.485 60.6498 44.8101 60.4281 45.246C60.3172 45.4639 60.2987 45.7077 60.2802 45.9516C60.1083 47.0987 59.469 48.314 58.344 48.5965C58.1334 48.6371 57.8767 48.6648 57.7326 48.8236C57.5885 48.9824 57.5238 49.2133 57.3797 49.3722C57.0194 49.7693 56.2473 49.5032 55.9795 49.9261C55.8945 50.0517 55.9018 50.2032 55.7836 50.2697C55.5675 50.508 55.1315 50.2862 54.8027 50.3933C54.6974 50.4136 54.5792 50.4801 54.5072 50.5595C53.9493 50.9511 53.1919 50.9879 52.5325 50.853C51.8731 50.718 51.2192 50.3855 50.6115 50.0658C45.63 47.2261 41.6278 42.6685 39.6631 37.2375C39.5098 36.8958 39.3695 36.5079 39.4342 36.277Z" fill="#C8A7CF"/>
<path d="M39.6892 35.9002C40.1545 36.7278 40.232 37.6957 40.52 38.623C41.6445 42.0756 45.3238 44.0525 46.7309 47.385C47.8315 50.034 47.2622 53.3109 45.2965 55.3499C44.4578 56.2106 43.4269 56.868 42.3296 57.4073C40.608 58.2198 38.7201 58.7368 36.8304 58.9046C36.2245 58.9341 35.4007 58.8527 35.2788 58.221C35.205 57.9513 35.3288 57.6871 35.314 57.3842C35.2864 57.1274 35.074 56.8189 34.8043 56.8928C34.6399 56.9463 34.5161 57.2104 34.3314 57.1587C34.1928 57.1199 34.1855 56.9684 34.119 56.8502C33.9195 56.4955 33.334 56.6303 33.0125 56.8888C32.6911 57.1474 32.3899 57.5113 31.9355 57.5334C31.4811 57.5555 31.1561 57.1158 30.7202 56.8941C30.5022 56.7832 30.2584 56.7647 30.0146 56.7462C28.8675 56.5743 27.6521 55.935 27.3696 54.81C27.329 54.5994 27.3014 54.3427 27.1425 54.1986C26.9837 54.0545 26.7528 53.9898 26.594 53.8457C26.1969 53.4854 26.463 52.7133 26.04 52.4454C25.9144 52.3605 25.7629 52.3678 25.6964 52.2496C25.4582 52.0334 25.6799 51.5975 25.5728 51.2687C25.5525 51.1634 25.486 51.0452 25.4066 50.9732C25.0151 50.4153 24.9782 49.6579 25.1132 48.9985C25.2481 48.3391 25.5807 47.6852 25.9003 47.0775C28.7401 42.096 33.2976 38.0938 38.7286 36.1291C39.0703 35.9758 39.4583 35.8355 39.6892 35.9002Z" fill="#B78EC0"/>
<path d="M39.7888 37.3225C40.5029 37.5226 41.2439 37.1058 41.444 36.3917C41.644 35.6777 41.2273 34.9366 40.5132 34.7365C39.7991 34.5365 39.058 34.9532 38.858 35.6673C38.6579 36.3814 39.0747 37.1225 39.7888 37.3225Z" fill="#B78EC0"/>
<path d="M40.8548 35.8283L39.0932 31.4502C39.0729 31.3449 38.9085 31.3985 38.9288 31.5038L39.3548 36.2049L41.1165 40.583C41.1368 40.6882 41.3012 40.6347 41.2809 40.5294L40.8548 35.8283C40.901 35.8412 40.8548 35.8283 40.8548 35.8283Z" fill="white"/>
<path d="M40.6939 36.5801L43.6259 32.8695C43.698 32.7901 43.5724 32.7051 43.5132 32.7383L39.6541 35.4919L36.7221 39.2026C36.6501 39.282 36.7757 39.367 36.8348 39.3337L40.6939 36.5801C40.6478 36.5671 40.6478 36.5671 40.6939 36.5801Z" fill="white"/>
<path d="M39.944 36.7684L44.6247 37.482C44.7171 37.5079 44.7559 37.3694 44.6765 37.2973L40.4042 35.3036C40.4042 35.3036 40.4042 35.3036 40.358 35.2907L35.6773 34.5771C35.585 34.5512 35.5462 34.6897 35.6256 34.7618L39.944 36.7684Z" fill="white"/>
<path d="M39.9957 36.5836C40.3527 36.6837 40.7233 36.4753 40.8233 36.1183C40.9233 35.7612 40.715 35.3907 40.3579 35.2907C40.0009 35.1906 39.6303 35.399 39.5303 35.756C39.4303 36.1131 39.6387 36.4836 39.9957 36.5836Z" stroke="#B78EC0" stroke-miterlimit="10"/>
</g>
</g>
<defs>
<filter id="filter0_d_23_1635" x="0" y="0" width="80" height="80" filterUnits="userSpaceOnUse" color-interpolation-filters="sRGB">
<feFlood flood-opacity="0" result="BackgroundImageFix"/>
<feColorMatrix in="SourceAlpha" type="matrix" values="0 0 0 0 0 0 0 0 0 0 0 0 0 0 0 0 0 0 127 0" result="hardAlpha"/>
<feOffset dy="4"/>
<feGaussianBlur stdDeviation="2"/>
<feComposite in2="hardAlpha" operator="out"/>
<feColorMatrix type="matrix" values="0 0 0 0 0 0 0 0 0 0 0 0 0 0 0 0 0 0 0.25 0"/>
<feBlend mode="normal" in2="BackgroundImageFix" result="effect1_dropShadow_23_1635"/>
<feBlend mode="normal" in="SourceGraphic" in2="effect1_dropShadow_23_1635" result="shape"/>
</filter>
<filter id="filter1_d_23_1635" x="0" y="0" width="80" height="80" filterUnits="userSpaceOnUse" color-interpolation-filters="sRGB">
<feFlood flood-opacity="0" result="BackgroundImageFix"/>
<feColorMatrix in="SourceAlpha" type="matrix" values="0 0 0 0 0 0 0 0 0 0 0 0 0 0 0 0 0 0 127 0" result="hardAlpha"/>
<feOffset dy="4"/>
<feGaussianBlur stdDeviation="2"/>
<feColorMatrix type="matrix" values="0 0 0 0 0 0 0 0 0 0 0 0 0 0 0 0 0 0 0.25 0"/>
<feBlend mode="normal" in2="BackgroundImageFix" result="effect1_dropShadow_23_1635"/>
<feBlend mode="normal" in="SourceGraphic" in2="effect1_dropShadow_23_1635" result="shape"/>
</filter>
<filter id="filter2_d_23_1635" x="13.825" y="13.0902" width="52.6188" height="53.8195" filterUnits="userSpaceOnUse" color-interpolation-filters="sRGB">
<feFlood flood-opacity="0" result="BackgroundImageFix"/>
<feColorMatrix in="SourceAlpha" type="matrix" values="0 0 0 0 0 0 0 0 0 0 0 0 0 0 0 0 0 0 127 0" result="hardAlpha"/>
<feOffset dy="4"/>
<feGaussianBlur stdDeviation="2"/>
<feComposite in2="hardAlpha" operator="out"/>
<feColorMatrix type="matrix" values="0 0 0 0 0 0 0 0 0 0 0 0 0 0 0 0 0 0 0.25 0"/>
<feBlend mode="normal" in2="BackgroundImageFix" result="effect1_dropShadow_23_1635"/>
<feBlend mode="normal" in="SourceGraphic" in2="effect1_dropShadow_23_1635" result="shape"/>
</filter>
</defs>
</svg>
