<svg width="80" height="80" viewBox="0 0 80 80" fill="none" xmlns="http://www.w3.org/2000/svg">
<g filter="url(#filter0_d_23_1703)">
<circle cx="40" cy="36" r="36" fill="#F5EFE9"/>
</g>
<circle cx="40" cy="36" r="29.9368" fill="#FFFCF9"/>
<path d="M40.4085 39.3734C42.6311 39.3734 44.4329 37.5461 44.4329 35.2921C44.4329 33.038 42.6311 31.2107 40.4085 31.2107C38.1858 31.2107 36.384 33.038 36.384 35.2921C36.384 37.5461 38.1858 39.3734 40.4085 39.3734Z" fill="#28292E"/>
<path d="M40.4085 39.3734C42.6311 39.3734 44.4329 37.5461 44.4329 35.2921C44.4329 33.038 42.6311 31.2107 40.4085 31.2107C38.1858 31.2107 36.384 33.038 36.384 35.2921C36.384 37.5461 38.1858 39.3734 40.4085 39.3734Z" fill="#28292E"/>
<path d="M40.4085 39.3734C42.6311 39.3734 44.4329 37.5461 44.4329 35.2921C44.4329 33.038 42.6311 31.2107 40.4085 31.2107C38.1858 31.2107 36.384 33.038 36.384 35.2921C36.384 37.5461 38.1858 39.3734 40.4085 39.3734Z" fill="#28292E"/>
<path d="M40.4085 39.3734C42.6311 39.3734 44.4329 37.5461 44.4329 35.2921C44.4329 33.038 42.6311 31.2107 40.4085 31.2107C38.1858 31.2107 36.384 33.038 36.384 35.2921C36.384 37.5461 38.1858 39.3734 40.4085 39.3734Z" fill="#28292E"/>
<path d="M40.4959 32.653C39.3399 32.6572 38.2202 32.2439 37.3373 31.4872C36.4544 30.7305 35.8659 29.6797 35.6772 28.5231L34.1339 19.0666C34.0097 18.3047 34.0504 17.5246 34.2534 16.7803C34.4563 16.036 34.8165 15.3455 35.309 14.7566C35.8016 14.1677 36.4146 13.6945 37.1055 13.37C37.7965 13.0455 38.5488 12.8775 39.3102 12.8774H41.5069C42.2611 12.8778 43.0063 13.043 43.6918 13.3617C44.3774 13.6804 44.9872 14.1451 45.4797 14.7243C45.9723 15.3035 46.336 15.9835 46.5461 16.718C46.7562 17.4525 46.8078 18.2243 46.6973 18.9809L45.2892 28.4432C45.1177 29.6098 44.54 30.6756 43.6608 31.4478C42.7816 32.22 41.6589 32.6475 40.4959 32.653V32.653Z" fill="#E8B2A3"/>
<path d="M36.5728 35.3521C36.22 36.4662 35.4882 37.4169 34.508 38.0343C33.5278 38.6516 32.363 38.8955 31.2219 38.7222L21.8775 37.2942C21.1231 37.1798 20.4023 36.9001 19.7654 36.4744C19.1284 36.0488 18.5906 35.4875 18.1893 34.8297C17.788 34.1718 17.5329 33.4331 17.4418 32.6651C17.3506 31.8971 17.4256 31.1181 17.6615 30.3825L18.3403 28.2632C18.5738 27.5351 18.9595 26.8667 19.4711 26.3036C19.9826 25.7405 20.608 25.296 21.3045 25.0004C22.001 24.7049 22.7521 24.5653 23.5067 24.5911C24.2612 24.6169 25.0014 24.8076 25.6767 25.1501L34.1255 29.4342C35.162 29.9628 35.9783 30.8496 36.427 31.9347C36.8757 33.0198 36.9274 34.2317 36.5728 35.3521V35.3521Z" fill="#E8B2A3"/>
<path d="M37.9527 39.9846C38.8905 40.6705 39.5569 41.6726 39.8325 42.8114C40.108 43.9501 39.9748 45.1512 39.4566 46.1995L35.2322 54.7678C34.8903 55.4586 34.4041 56.0656 33.8074 56.5467C33.2108 57.0277 32.518 57.3713 31.7773 57.5534C31.0365 57.7355 30.2655 57.7518 29.5179 57.6012C28.7703 57.4506 28.064 57.1367 27.448 56.6813L25.671 55.3732C25.0599 54.9231 24.5519 54.3445 24.1816 53.6769C23.8114 53.0094 23.5876 52.2686 23.5255 51.5053C23.4635 50.742 23.5647 49.9741 23.8222 49.254C24.0797 48.534 24.4875 47.8789 25.0176 47.3333L31.6386 40.5244C32.4548 39.6857 33.5395 39.1703 34.6973 39.0714C35.8551 38.9724 37.0097 39.2963 37.9527 39.9846V39.9846Z" fill="#E8B2A3"/>
<path d="M42.7235 40.0903C43.656 39.3974 44.8014 39.0639 45.9543 39.1498C47.1073 39.2356 48.1924 39.7351 49.0151 40.5587L55.7488 47.2877C56.2916 47.8297 56.7115 48.4851 56.9791 49.2084C57.2468 49.9317 57.3559 50.7054 57.2988 51.4758C57.2417 52.2461 57.0198 52.9947 56.6486 53.6692C56.2773 54.3438 55.7655 54.9282 55.1489 55.3819L53.3662 56.6814C52.7555 57.1318 52.056 57.4432 51.3157 57.5943C50.5754 57.7455 49.8116 57.7327 49.0766 57.557C48.3416 57.3813 47.6526 57.0468 47.0568 56.5762C46.461 56.1057 45.9724 55.5103 45.6243 54.8306L41.2788 46.3452C40.7432 45.2995 40.5944 44.0938 40.8594 42.9465C41.1244 41.7992 41.7857 40.786 42.7235 40.0903V40.0903Z" fill="#E8B2A3"/>
<path d="M44.2977 35.5178C43.9368 34.404 43.9786 33.1963 44.4157 32.1109C44.8527 31.0255 45.6565 30.1334 46.6831 29.5942L55.0728 25.1844C55.7487 24.8286 56.4929 24.6263 57.2537 24.5917C58.0145 24.5571 58.7736 24.6909 59.4783 24.984C60.1829 25.277 60.8161 25.7221 61.3339 26.2884C61.8518 26.8547 62.2417 27.5287 62.4768 28.2633L63.1555 30.3825C63.3891 31.1108 63.4649 31.8816 63.3777 32.6423C63.2906 33.403 63.0426 34.1357 62.6506 34.7902C62.2586 35.4448 61.7319 36.0059 61.1065 36.4351C60.4811 36.8643 59.7717 37.1515 59.0268 37.2771L49.7331 38.8451C48.5844 39.0421 47.4041 38.8147 46.4067 38.2041C45.4093 37.5936 44.661 36.6404 44.2977 35.5178Z" fill="#E8B2A3"/>
<path d="M40.4085 39.3734C42.6311 39.3734 44.4329 37.5461 44.4329 35.2921C44.4329 33.038 42.6311 31.2107 40.4085 31.2107C38.1858 31.2107 36.384 33.038 36.384 35.2921C36.384 37.5461 38.1858 39.3734 40.4085 39.3734Z" fill="#28292E"/>
<path d="M40.4084 42.8122C43.9625 42.8122 46.8436 39.8904 46.8436 36.2861C46.8436 32.6818 43.9625 29.7599 40.4084 29.7599C36.8544 29.7599 33.9733 32.6818 33.9733 36.2861C33.9733 39.8904 36.8544 42.8122 40.4084 42.8122Z" fill="#DEC763"/>
<path d="M40.4255 31.185C41.2234 31.185 41.8702 30.529 41.8702 29.7198C41.8702 28.9106 41.2234 28.2546 40.4255 28.2546C39.6275 28.2546 38.9807 28.9106 38.9807 29.7198C38.9807 30.529 39.6275 31.185 40.4255 31.185Z" fill="#DEC763" stroke="#F5EFE9" stroke-width="5" stroke-miterlimit="10"/>
<path d="M40.3916 44.3202C41.1896 44.3202 41.8364 43.6642 41.8364 42.855C41.8364 42.0458 41.1896 41.3898 40.3916 41.3898C39.5937 41.3898 38.9469 42.0458 38.9469 42.855C38.9469 43.6642 39.5937 44.3202 40.3916 44.3202Z" fill="#DEC763" stroke="#F5EFE9" stroke-width="5" stroke-miterlimit="10"/>
<path d="M35.8405 33.0958C36.6384 33.0958 37.2852 32.4398 37.2852 31.6306C37.2852 30.8214 36.6384 30.1654 35.8405 30.1654C35.0426 30.1654 34.3958 30.8214 34.3958 31.6306C34.3958 32.4398 35.0426 33.0958 35.8405 33.0958Z" fill="#DEC763" stroke="#F5EFE9" stroke-width="5" stroke-miterlimit="10"/>
<path d="M44.9765 42.4066C45.7744 42.4066 46.4212 41.7506 46.4212 40.9414C46.4212 40.1322 45.7744 39.4763 44.9765 39.4763C44.1786 39.4763 43.5317 40.1322 43.5317 40.9414C43.5317 41.7506 44.1786 42.4066 44.9765 42.4066Z" fill="#DEC763" stroke="#F5EFE9" stroke-width="5" stroke-miterlimit="10"/>
<path d="M33.9339 37.7341C34.7318 37.7341 35.3786 37.0781 35.3786 36.2689C35.3786 35.4597 34.7318 34.8037 33.9339 34.8037C33.136 34.8037 32.4891 35.4597 32.4891 36.2689C32.4891 37.0781 33.136 37.7341 33.9339 37.7341Z" fill="#DEC763" stroke="#F5EFE9" stroke-width="5" stroke-miterlimit="10"/>
<path d="M46.8859 37.7683C47.6838 37.7683 48.3307 37.1123 48.3307 36.3031C48.3307 35.4939 47.6838 34.838 46.8859 34.838C46.088 34.838 45.4412 35.4939 45.4412 36.3031C45.4412 37.1123 46.088 37.7683 46.8859 37.7683Z" fill="#DEC763" stroke="#F5EFE9" stroke-width="5" stroke-miterlimit="10"/>
<path d="M35.818 42.3838C36.6159 42.3838 37.2628 41.7278 37.2628 40.9186C37.2628 40.1094 36.6159 39.4534 35.818 39.4534C35.0201 39.4534 34.3733 40.1094 34.3733 40.9186C34.3733 41.7278 35.0201 42.3838 35.818 42.3838Z" fill="#DEC763" stroke="#F5EFE9" stroke-width="5" stroke-miterlimit="10"/>
<path d="M44.9991 33.1186C45.797 33.1186 46.4438 32.4626 46.4438 31.6534C46.4438 30.8442 45.797 30.1882 44.9991 30.1882C44.2012 30.1882 43.5543 30.8442 43.5543 31.6534C43.5543 32.4626 44.2012 33.1186 44.9991 33.1186Z" fill="#DEC763" stroke="#F5EFE9" stroke-width="5" stroke-miterlimit="10"/>
<defs>
<filter id="filter0_d_23_1703" x="0" y="0" width="80" height="80" filterUnits="userSpaceOnUse" color-interpolation-filters="sRGB">
<feFlood flood-opacity="0" result="BackgroundImageFix"/>
<feColorMatrix in="SourceAlpha" type="matrix" values="0 0 0 0 0 0 0 0 0 0 0 0 0 0 0 0 0 0 127 0" result="hardAlpha"/>
<feOffset dy="4"/>
<feGaussianBlur stdDeviation="2"/>
<feColorMatrix type="matrix" values="0 0 0 0 0 0 0 0 0 0 0 0 0 0 0 0 0 0 0.25 0"/>
<feBlend mode="normal" in2="BackgroundImageFix" result="effect1_dropShadow_23_1703"/>
<feBlend mode="normal" in="SourceGraphic" in2="effect1_dropShadow_23_1703" result="shape"/>
</filter>
</defs>
</svg>
