<svg width="72" height="72" viewBox="0 0 72 72" fill="none" xmlns="http://www.w3.org/2000/svg">
<path d="M72 36C72 55.8823 55.8823 72 36 72C16.1177 72 0 55.8823 0 36C0 16.1177 16.1177 0 36 0C55.8823 0 72 16.1177 72 36Z" fill="#F7F0E9"/>
<path d="M65.9368 36C65.9368 52.5337 52.5336 65.9368 36 65.9368C19.4663 65.9368 6.06311 52.5337 6.06311 36C6.06311 19.4663 19.4663 6.06316 36 6.06316C52.5336 6.06316 65.9368 19.4663 65.9368 36Z" fill="#FFFCF9"/>
<path d="M32.6964 35.1472C30.7472 36.6309 29.3922 39.461 28.4254 41.8647C27.6837 43.6082 27.2325 45.4888 27.0938 47.4141C26.8202 52.6421 28.4515 56.2462 23.7062 61.0712V61.7313H28.587V60.7149C28.587 60.7149 26.5492 59.5992 27.284 58.279C28.0189 56.9589 29.2384 55.0079 28.5036 49.3446C27.5394 41.8823 36.0293 33.5729 37.4756 31.5284C38.9218 29.4839 41.3713 25.284 40.2378 22.0362C40.2274 22.0186 37.4651 31.5109 32.6964 35.1472Z" fill="#9AAC63"/>
<path d="M28.4906 41.523C28.4906 41.523 25.7518 40.7753 23 32.9537C23 32.9537 27.8704 34.8755 28.8684 38.8214C29.8664 42.7672 28.4906 41.523 28.4906 41.523Z" fill="#6C844C"/>
<path d="M29.8951 49.4293C30.5395 49.2801 31.2045 49.2808 31.8486 49.4315C32.4928 49.5823 33.1024 49.8798 33.6397 50.3055C34.2246 50.776 34.6805 51.4204 34.9557 52.166C35.8 54.5347 36.2222 55.6212 37.7831 56.5675C37.7831 56.5675 34.8697 56.2375 33.2645 53.8717C31.6593 51.506 29.929 52.166 29.929 52.166C29.929 52.166 27.6723 52.0258 27.9147 50.9364C28.084 50.1741 28.7538 49.6688 29.8951 49.4293Z" fill="#6C844C"/>
<path d="M34.7863 34.6565C34.7863 34.6565 38.7551 35.3195 40.3603 37.9685C41.9655 40.6176 43.5681 41.5668 44.1075 41.707C44.1075 41.707 42.3329 38.4417 42.2078 37.069C42.0827 35.6962 39.2189 31.6745 34.7863 34.6565Z" fill="#6C844C"/>
<path d="M36.8971 30.6347L35.5081 28.5026C35.5081 28.5026 34.8332 26.4581 32.9023 26.1836C30.9713 25.909 28.5088 30.3017 28.5088 30.3017C28.5088 30.3017 31.2554 30.0097 32.712 28.6924C34.1687 27.3752 34.3199 29.9717 36.8971 30.6347Z" fill="#6C844C"/>
<path d="M39.641 26.7998C39.641 26.7998 42.5961 23.2044 44.1075 23.0146C45.6189 22.8248 48.0762 25.0591 48.6678 25.8535C49.2593 26.6479 50.9896 25.7601 50.9896 25.7601C50.9896 25.7601 49.916 27.6322 45.3114 26.61C40.7068 25.5877 39.641 26.7998 39.641 26.7998Z" fill="#6C844C"/>
<path d="M40.5818 23.5958C40.5818 23.5958 46.5231 21.2213 46.398 10C46.398 10 42.2026 13.1193 40.5818 16.3788C38.9609 19.6383 40.5818 23.5958 40.5818 23.5958Z" fill="#6C844C"/>
<path d="M40.5818 23.5958C40.5818 23.5958 37.3844 23.3651 37.2593 20.1961C37.1342 17.0272 34.8906 16.5657 34.8906 16.5657C34.8906 16.5657 40.9987 16.2853 40.5818 23.5958Z" fill="#6C844C"/>
</svg>
