<svg width="72" height="72" viewBox="0 0 72 72" fill="none" xmlns="http://www.w3.org/2000/svg">
<path d="M72 36C72 55.8823 55.8823 72 36 72C16.1177 72 0 55.8823 0 36C0 16.1177 16.1177 0 36 0C55.8823 0 72 16.1177 72 36Z" fill="#F5EFE9"/>
<path d="M65.9369 36C65.9369 52.5337 52.5337 65.9368 36 65.9368C19.4664 65.9368 6.06317 52.5337 6.06317 36C6.06317 19.4663 19.4664 6.06316 36 6.06316C52.5337 6.06316 65.9369 19.4663 65.9369 36Z" fill="white"/>
<path d="M60.6441 22.8856C60.6441 22.8856 60.9382 26.9252 49.6402 25.2574C38.3423 23.5897 37.195 31.9705 37.195 31.9705L37.8414 37.7167C37.8414 37.7167 45.4681 35.121 50.5677 31.2794C52.1232 30.1172 53.806 29.1374 55.5833 28.3593C58.7374 26.9803 62.9386 24.6539 60.6441 22.8856Z" fill="#6C844C"/>
<path d="M37.195 39.4818C37.195 39.4818 34.823 29.3197 25.8874 29.1964C16.9518 29.0731 13.9301 30.9193 8.54292 36.3864C8.54292 36.3864 19.731 35.4974 20.2642 39.777C20.7975 44.0567 36.8977 44.1216 37.195 39.4818Z" fill="#6C844C"/>
<path d="M35.0039 41.4415C35.0039 41.4415 28.6828 34.3099 20.2804 39.7803C11.878 45.2507 10.0392 45.2961 10.0392 45.2961C10.0392 45.2961 25.1764 51.0099 32.884 48.8133C40.5915 46.6167 35.0039 41.4415 35.0039 41.4415Z" fill="#6C844C"/>
<path d="M63 31.9413C63 31.9413 50.3157 55.2635 39.3473 42.2429C28.379 29.2223 63 31.9413 63 31.9413Z" fill="#6C844C"/>
<path d="M38.6557 43.1482C38.6557 43.1482 38.8787 38.6577 43.2253 39.7219C47.5719 40.7861 51.1494 42.4668 57.2282 57.6483C57.2282 57.6483 31.0516 56.808 34.0764 45.3805C34.0797 45.3805 35.1946 42.0191 38.6557 43.1482Z" fill="#6C844C"/>
<path d="M33.9246 40.7342C33.9246 40.7342 36.9656 46.1981 30.8221 52.5997C30.8221 52.5997 28.8831 56.1234 22.3971 57.8852C22.3971 57.8852 18.9457 58.9429 17.1909 61C17.1909 61 19.4757 55.5588 19.7342 52.1714C19.8302 50.6308 20.244 49.1271 20.9494 47.7555C22.646 44.5596 26.3818 40.1275 33.9246 40.7342Z" fill="#6C844C"/>
</svg>
