<svg width="91" height="108" viewBox="0 0 91 108" fill="none" xmlns="http://www.w3.org/2000/svg">
<ellipse cx="46.5" cy="42" rx="35.5" ry="36" fill="#7BB9CE" fill-opacity="0.5"/>
<ellipse cx="46.5" cy="42" rx="29.5" ry="30" fill="#7BB9CE"/>
<path d="M25.9282 63.6396C31.4932 69.2657 39.0408 72.4264 46.9108 72.4264C54.7809 72.4264 62.3285 69.2657 67.8935 63.6396C73.4584 58.0135 76.5848 50.3829 76.5848 42.4264C76.5848 34.4699 73.4584 26.8393 67.8935 21.2132L46.9108 42.4264L25.9282 63.6396Z" fill="#B78EC0"/>
<path d="M2.00769 99V88.536H5.35169C6.07702 88.536 6.71702 88.616 7.27169 88.776C7.83702 88.936 8.27969 89.208 8.59969 89.592C8.93035 89.9654 9.09569 90.472 9.09569 91.112C9.09569 91.6027 8.96769 92.0667 8.71169 92.504C8.45569 92.9307 8.09835 93.224 7.63969 93.384V93.448C8.21569 93.576 8.69035 93.848 9.06369 94.264C9.44769 94.6694 9.63969 95.224 9.63969 95.928C9.63969 96.6214 9.46369 97.1974 9.11169 97.656C8.77035 98.1147 8.29569 98.456 7.68769 98.68C7.07969 98.8934 6.39169 99 5.62369 99H2.00769ZM3.86369 92.856H5.19169C5.91702 92.856 6.44502 92.7227 6.77569 92.456C7.10635 92.1894 7.27169 91.832 7.27169 91.384C7.27169 90.872 7.10102 90.5094 6.75969 90.296C6.41835 90.0827 5.90635 89.976 5.22369 89.976H3.86369V92.856ZM3.86369 97.56H5.43169C6.19969 97.56 6.79169 97.4214 7.20769 97.144C7.62369 96.856 7.83169 96.4187 7.83169 95.832C7.83169 95.2774 7.62902 94.8774 7.22369 94.632C6.81835 94.376 6.22102 94.248 5.43169 94.248H3.86369V97.56ZM13.1866 99.192C12.5359 99.192 12.0719 98.9947 11.7946 98.6C11.5279 98.2054 11.3946 97.6667 11.3946 96.984V87.704H13.2346V97.08C13.2346 97.304 13.2772 97.464 13.3626 97.56C13.4479 97.6454 13.5386 97.688 13.6346 97.688C13.6772 97.688 13.7146 97.688 13.7466 97.688C13.7892 97.6774 13.8479 97.6667 13.9226 97.656L14.1626 99.032C14.0559 99.0747 13.9172 99.112 13.7466 99.144C13.5866 99.176 13.3999 99.192 13.1866 99.192ZM18.0743 99.192C17.2316 99.192 16.6183 98.92 16.2343 98.376C15.8503 97.832 15.6583 97.064 15.6583 96.072V91.144H17.4983V95.832C17.4983 96.4827 17.5943 96.9414 17.7863 97.208C17.9783 97.4747 18.2876 97.608 18.7143 97.608C19.0556 97.608 19.3543 97.5227 19.6103 97.352C19.877 97.1814 20.1596 96.904 20.4583 96.52V91.144H22.2983V99H20.7943L20.6503 97.848H20.6023C20.261 98.2534 19.8876 98.5787 19.4823 98.824C19.077 99.0694 18.6076 99.192 18.0743 99.192ZM27.9889 99.192C27.2636 99.192 26.6076 99.032 26.0209 98.712C25.4343 98.3814 24.9703 97.912 24.6289 97.304C24.2876 96.6854 24.1169 95.944 24.1169 95.08C24.1169 94.2267 24.2876 93.4907 24.6289 92.872C24.9809 92.2534 25.4343 91.7787 25.9889 91.448C26.5436 91.1174 27.1249 90.952 27.7329 90.952C28.4476 90.952 29.0449 91.112 29.5249 91.432C30.0049 91.7414 30.3676 92.1787 30.6129 92.744C30.8583 93.2987 30.9809 93.944 30.9809 94.68C30.9809 95.064 30.9543 95.3627 30.9009 95.576H25.9089C25.9943 96.2694 26.2449 96.808 26.6609 97.192C27.0769 97.576 27.5996 97.768 28.2289 97.768C28.5703 97.768 28.8849 97.72 29.1729 97.624C29.4716 97.5174 29.7649 97.3734 30.0529 97.192L30.6769 98.344C30.3036 98.5894 29.8876 98.792 29.4289 98.952C28.9703 99.112 28.4903 99.192 27.9889 99.192ZM25.8929 94.328H29.3809C29.3809 93.72 29.2476 93.2454 28.9809 92.904C28.7143 92.552 28.3143 92.376 27.7809 92.376C27.3223 92.376 26.9116 92.5467 26.5489 92.888C26.1969 93.2187 25.9783 93.6987 25.8929 94.328ZM34.9303 99.192C34.397 99.192 33.8636 99.0907 33.3303 98.888C32.797 98.6747 32.3383 98.4134 31.9543 98.104L32.8183 96.92C33.1703 97.1867 33.5223 97.4 33.8743 97.56C34.2263 97.72 34.5996 97.8 34.9943 97.8C35.421 97.8 35.7356 97.7094 35.9383 97.528C36.141 97.3467 36.2423 97.1227 36.2423 96.856C36.2423 96.632 36.157 96.4507 35.9863 96.312C35.8263 96.1627 35.6183 96.0347 35.3623 95.928C35.1063 95.8107 34.8396 95.6987 34.5623 95.592C34.221 95.464 33.8796 95.3094 33.5383 95.128C33.2076 94.936 32.9356 94.696 32.7223 94.408C32.509 94.1094 32.4023 93.7414 32.4023 93.304C32.4023 92.6107 32.6583 92.0454 33.1703 91.608C33.6823 91.1707 34.3756 90.952 35.2503 90.952C35.805 90.952 36.301 91.048 36.7383 91.24C37.1756 91.432 37.5543 91.6507 37.8743 91.896L37.0263 93.016C36.749 92.8134 36.4663 92.6534 36.1783 92.536C35.901 92.408 35.6076 92.344 35.2983 92.344C34.9036 92.344 34.6103 92.4294 34.4183 92.6C34.2263 92.76 34.1303 92.9627 34.1303 93.208C34.1303 93.5174 34.2903 93.752 34.6103 93.912C34.9303 94.072 35.3036 94.2267 35.7303 94.376C36.093 94.504 36.445 94.664 36.7863 94.856C37.1276 95.0374 37.4103 95.2774 37.6343 95.576C37.869 95.8747 37.9863 96.2694 37.9863 96.76C37.9863 97.432 37.725 98.008 37.2023 98.488C36.6796 98.9574 35.9223 99.192 34.9303 99.192ZM38.6529 101.56L42.3809 87.64H43.6289L39.9009 101.56H38.6529ZM47.1609 99L43.8969 88.536H45.8649L47.3369 93.8C47.5076 94.3867 47.6623 94.952 47.8009 95.496C47.9396 96.04 48.0943 96.6107 48.2649 97.208H48.3289C48.5103 96.6107 48.6649 96.04 48.7929 95.496C48.9316 94.952 49.0809 94.3867 49.2409 93.8L50.6969 88.536H52.6009L49.3529 99H47.1609ZM53.7071 99V91.144H55.5471V99H53.7071ZM54.6351 89.768C54.3044 89.768 54.0377 89.672 53.8351 89.48C53.6324 89.288 53.5311 89.032 53.5311 88.712C53.5311 88.4027 53.6324 88.152 53.8351 87.96C54.0377 87.768 54.3044 87.672 54.6351 87.672C54.9657 87.672 55.2324 87.768 55.4351 87.96C55.6377 88.152 55.7391 88.4027 55.7391 88.712C55.7391 89.032 55.6377 89.288 55.4351 89.48C55.2324 89.672 54.9657 89.768 54.6351 89.768ZM61.1106 99.192C60.4599 99.192 59.8519 99.032 59.2866 98.712C58.7212 98.3814 58.2626 97.912 57.9106 97.304C57.5586 96.6854 57.3826 95.944 57.3826 95.08C57.3826 94.2054 57.5586 93.464 57.9106 92.856C58.2626 92.2374 58.7212 91.768 59.2866 91.448C59.8519 91.1174 60.4599 90.952 61.1106 90.952C61.7719 90.952 62.3852 91.1174 62.9506 91.448C63.5159 91.768 63.9746 92.2374 64.3266 92.856C64.6786 93.464 64.8546 94.2054 64.8546 95.08C64.8546 95.944 64.6786 96.6854 64.3266 97.304C63.9746 97.912 63.5159 98.3814 62.9506 98.712C62.3852 99.032 61.7719 99.192 61.1106 99.192ZM61.1106 97.688C61.6866 97.688 62.1399 97.448 62.4706 96.968C62.8012 96.488 62.9666 95.8587 62.9666 95.08C62.9666 94.2907 62.8012 93.656 62.4706 93.176C62.1399 92.696 61.6866 92.456 61.1106 92.456C60.5346 92.456 60.0812 92.696 59.7506 93.176C59.4306 93.656 59.2706 94.2907 59.2706 95.08C59.2706 95.8587 59.4306 96.488 59.7506 96.968C60.0812 97.448 60.5346 97.688 61.1106 97.688ZM68.4678 99.192C67.8171 99.192 67.3531 98.9947 67.0758 98.6C66.8091 98.2054 66.6758 97.6667 66.6758 96.984V87.704H68.5158V97.08C68.5158 97.304 68.5585 97.464 68.6438 97.56C68.7291 97.6454 68.8198 97.688 68.9158 97.688C68.9585 97.688 68.9958 97.688 69.0278 97.688C69.0705 97.6774 69.1291 97.6667 69.2038 97.656L69.4438 99.032C69.3371 99.0747 69.1985 99.112 69.0278 99.144C68.8678 99.176 68.6811 99.192 68.4678 99.192ZM74.3796 99.192C73.6542 99.192 72.9982 99.032 72.4116 98.712C71.8249 98.3814 71.3609 97.912 71.0196 97.304C70.6782 96.6854 70.5076 95.944 70.5076 95.08C70.5076 94.2267 70.6782 93.4907 71.0196 92.872C71.3716 92.2534 71.8249 91.7787 72.3796 91.448C72.9342 91.1174 73.5156 90.952 74.1236 90.952C74.8382 90.952 75.4356 91.112 75.9156 91.432C76.3956 91.7414 76.7582 92.1787 77.0036 92.744C77.2489 93.2987 77.3716 93.944 77.3716 94.68C77.3716 95.064 77.3449 95.3627 77.2916 95.576H72.2996C72.3849 96.2694 72.6356 96.808 73.0516 97.192C73.4676 97.576 73.9902 97.768 74.6196 97.768C74.9609 97.768 75.2756 97.72 75.5636 97.624C75.8622 97.5174 76.1556 97.3734 76.4436 97.192L77.0676 98.344C76.6942 98.5894 76.2782 98.792 75.8196 98.952C75.3609 99.112 74.8809 99.192 74.3796 99.192ZM72.2836 94.328H75.7716C75.7716 93.72 75.6382 93.2454 75.3716 92.904C75.1049 92.552 74.7049 92.376 74.1716 92.376C73.7129 92.376 73.3022 92.5467 72.9396 92.888C72.5876 93.2187 72.3689 93.6987 72.2836 94.328ZM81.7407 99.192C80.834 99.192 80.1887 98.9307 79.8047 98.408C79.4314 97.8747 79.2447 97.1867 79.2447 96.344V92.6H78.1247V91.224L79.3407 91.144L79.5647 89H81.1007V91.144H83.1007V92.6H81.1007V96.344C81.1007 97.2614 81.4687 97.72 82.2047 97.72C82.3434 97.72 82.4874 97.704 82.6367 97.672C82.786 97.6294 82.914 97.5867 83.0207 97.544L83.3407 98.904C83.1274 98.9787 82.882 99.0427 82.6047 99.096C82.338 99.16 82.05 99.192 81.7407 99.192ZM86.7897 99.192C86.2564 99.192 85.723 99.0907 85.1897 98.888C84.6564 98.6747 84.1977 98.4134 83.8137 98.104L84.6777 96.92C85.0297 97.1867 85.3817 97.4 85.7337 97.56C86.0857 97.72 86.459 97.8 86.8537 97.8C87.2804 97.8 87.595 97.7094 87.7977 97.528C88.0004 97.3467 88.1017 97.1227 88.1017 96.856C88.1017 96.632 88.0164 96.4507 87.8457 96.312C87.6857 96.1627 87.4777 96.0347 87.2217 95.928C86.9657 95.8107 86.699 95.6987 86.4217 95.592C86.0804 95.464 85.739 95.3094 85.3977 95.128C85.067 94.936 84.795 94.696 84.5817 94.408C84.3684 94.1094 84.2617 93.7414 84.2617 93.304C84.2617 92.6107 84.5177 92.0454 85.0297 91.608C85.5417 91.1707 86.235 90.952 87.1097 90.952C87.6644 90.952 88.1604 91.048 88.5977 91.24C89.035 91.432 89.4137 91.6507 89.7337 91.896L88.8857 93.016C88.6084 92.8134 88.3257 92.6534 88.0377 92.536C87.7604 92.408 87.467 92.344 87.1577 92.344C86.763 92.344 86.4697 92.4294 86.2777 92.6C86.0857 92.76 85.9897 92.9627 85.9897 93.208C85.9897 93.5174 86.1497 93.752 86.4697 93.912C86.7897 94.072 87.163 94.2267 87.5897 94.376C87.9524 94.504 88.3044 94.664 88.6457 94.856C88.987 95.0374 89.2697 95.2774 89.4937 95.576C89.7284 95.8747 89.8457 96.2694 89.8457 96.76C89.8457 97.432 89.5844 98.008 89.0617 98.488C88.539 98.9574 87.7817 99.192 86.7897 99.192Z" fill="#3B4549"/>
</svg>
