<svg width="163" height="163" viewBox="0 0 163 163" fill="none" xmlns="http://www.w3.org/2000/svg">
<g filter="url(#filter0_d_196_248)">
<circle cx="81.5" cy="77.5" r="77.5" fill="white"/>
</g>
<path d="M81.4831 148.966C120.962 148.966 152.966 116.962 152.966 77.4831C152.966 38.0041 120.962 6 81.4831 6C42.0041 6 10 38.0041 10 77.4831C10 116.962 42.0041 148.966 81.4831 148.966Z" fill="#FFD6BA"/>
<path d="M81.3815 79.5496C86.003 79.5496 89.7494 76.0459 89.7494 71.7238C89.7494 67.4017 86.003 63.8979 81.3815 63.8979C76.76 63.8979 73.0135 67.4017 73.0135 71.7238C73.0135 76.0459 76.76 79.5496 81.3815 79.5496Z" fill="#3B4549"/>
<path d="M80.7716 134.398L73.2506 76.9749H89.7493L80.7716 134.398Z" fill="#3B4549"/>
<path d="M135.688 41.7754L89.7493 76.9749L81.483 62.6783L135.688 41.7754Z" fill="#3B4549"/>
<path d="M28.0232 40.5219L81.483 62.6783L73.2506 76.9749L28.0232 40.5219Z" fill="#3B4549"/>
<g filter="url(#filter1_d_196_248)">
<path d="M95.5424 25.48C87.3778 20.9403 81.6862 13.4871 81.6862 13.4871C81.6862 13.4871 75.9947 20.9403 67.83 25.48C59.6654 30.0196 48.2823 40.1831 63.3242 58.1047C78.3662 76.0263 81.6862 78.2961 81.6862 78.2961C81.6862 78.2961 85.0402 76.0263 100.048 58.1047C115.056 40.1831 103.673 30.0196 95.5424 25.48Z" fill="white"/>
<path d="M29.0056 91.9829C29.1411 101.333 25.55 109.972 25.55 109.972C25.55 109.972 34.8327 111.192 42.8618 115.969C50.891 120.746 65.3908 125.522 73.3861 103.569C81.3814 81.6162 81.6863 77.5847 81.6863 77.5847C81.6863 77.5847 78.0274 75.823 55.0241 71.7915C31.9869 67.6922 28.8701 82.6325 29.0056 91.9829Z" fill="white"/>
<path d="M120.477 115.969C128.506 111.192 137.789 109.972 137.789 109.972C137.789 109.972 134.197 101.333 134.333 91.9829C134.469 82.6325 131.352 67.6922 108.315 71.7576C85.3112 75.823 81.6523 77.5508 81.6523 77.5508C81.6523 77.5508 81.9572 81.5823 89.9525 103.535C97.9478 125.488 112.482 120.746 120.477 115.969Z" fill="white"/>
</g>
<path d="M81.8557 68.4715C79.2809 68.4715 77.2144 66.4049 77.2144 63.8302C77.2144 61.2554 79.2809 59.1888 81.8557 59.1888C84.4304 59.1888 86.497 61.2554 86.497 63.8302C86.497 66.4049 84.4304 68.4715 81.8557 68.4715ZM81.8557 61.8652C80.7716 61.8652 79.8907 62.7461 79.8907 63.8302C79.8907 64.9143 80.7716 65.7951 81.8557 65.7951C82.9398 65.7951 83.8206 64.9143 83.8206 63.8302C83.8206 62.7461 82.9398 61.8652 81.8557 61.8652Z" fill="#B6D1C0"/>
<path d="M69.253 88.9339C66.9493 88.9339 64.9505 87.24 64.6456 84.9024C64.4762 83.6828 64.815 82.4632 65.5603 81.4807C66.3056 80.4982 67.3897 79.8546 68.6432 79.719C69.8629 79.5496 71.0825 79.8884 72.0649 80.6338C73.0474 81.3791 73.6911 82.4632 73.8266 83.7167C73.996 84.9363 73.6572 86.1559 72.9119 87.1384C72.1666 88.1209 71.0825 88.7645 69.829 88.9C69.6596 88.9339 69.4563 88.9339 69.253 88.9339ZM69.253 82.3615C69.1853 82.3615 69.0837 82.3615 68.982 82.3954C68.4739 82.4632 67.9996 82.7342 67.6947 83.1407C67.3897 83.5473 67.2542 84.0555 67.322 84.5636C67.4575 85.6139 68.44 86.3931 69.4902 86.2237C69.9984 86.1559 70.4727 85.8849 70.7776 85.4783C71.0825 85.0718 71.218 84.5636 71.1502 84.0555C71.0825 83.5473 70.8114 83.073 70.4049 82.7681C70.1 82.4971 69.6596 82.3615 69.253 82.3615Z" fill="#B6D1C0"/>
<path d="M94.1196 89.3743C91.5448 89.3743 89.4783 87.3077 89.4783 84.733C89.4783 82.1582 91.5448 80.0917 94.1196 80.0917C96.6943 80.0917 98.7609 82.1582 98.7609 84.733C98.7609 87.3077 96.6604 89.3743 94.1196 89.3743ZM94.1196 82.8019C93.0355 82.8019 92.1546 83.6828 92.1546 84.7669C92.1546 85.851 93.0355 86.7318 94.1196 86.7318C95.2037 86.7318 96.0845 85.851 96.0845 84.7669C96.0845 83.6828 95.2037 82.8019 94.1196 82.8019Z" fill="#B6D1C0"/>
<path d="M83.2786 76.7716L75.4188 66.4388L80.0601 78.6011L87.9538 88.9678L83.2786 76.7716Z" fill="#8EA396"/>
<path d="M83.2787 78.6349L88.2927 66.642L80.0941 76.7716L75.0463 88.7306L83.2787 78.6349Z" fill="#8EA396"/>
<path d="M81.6863 79.5497L94.5601 77.8896L81.6863 75.8231L68.8126 77.4831L81.6863 79.5497Z" fill="#8EA396"/>
<defs>
<filter id="filter0_d_196_248" x="0" y="0" width="163" height="163" filterUnits="userSpaceOnUse" color-interpolation-filters="sRGB">
<feFlood flood-opacity="0" result="BackgroundImageFix"/>
<feColorMatrix in="SourceAlpha" type="matrix" values="0 0 0 0 0 0 0 0 0 0 0 0 0 0 0 0 0 0 127 0" result="hardAlpha"/>
<feOffset dy="4"/>
<feGaussianBlur stdDeviation="2"/>
<feComposite in2="hardAlpha" operator="out"/>
<feColorMatrix type="matrix" values="0 0 0 0 0 0 0 0 0 0 0 0 0 0 0 0 0 0 0.25 0"/>
<feBlend mode="normal" in2="BackgroundImageFix" result="effect1_dropShadow_196_248"/>
<feBlend mode="normal" in="SourceGraphic" in2="effect1_dropShadow_196_248" result="shape"/>
</filter>
<filter id="filter1_d_196_248" x="21.55" y="13.4871" width="120.239" height="114.52" filterUnits="userSpaceOnUse" color-interpolation-filters="sRGB">
<feFlood flood-opacity="0" result="BackgroundImageFix"/>
<feColorMatrix in="SourceAlpha" type="matrix" values="0 0 0 0 0 0 0 0 0 0 0 0 0 0 0 0 0 0 127 0" result="hardAlpha"/>
<feOffset dy="4"/>
<feGaussianBlur stdDeviation="2"/>
<feColorMatrix type="matrix" values="0 0 0 0 0 0 0 0 0 0 0 0 0 0 0 0 0 0 0.25 0"/>
<feBlend mode="normal" in2="BackgroundImageFix" result="effect1_dropShadow_196_248"/>
<feBlend mode="normal" in="SourceGraphic" in2="effect1_dropShadow_196_248" result="shape"/>
</filter>
</defs>
</svg>
