<svg width="80" height="80" viewBox="0 0 80 80" fill="none" xmlns="http://www.w3.org/2000/svg">
<g filter="url(#filter0_d_23_1651)">
<circle cx="40" cy="36" r="36" fill="#F5EFE9"/>
</g>
<circle cx="40.0001" cy="36" r="29.9368" fill="white"/>
<path d="M40.058 36.0551C39.8913 35.4648 41.7524 34.4171 44.4664 33.5868L55.1981 30.3023C58.8694 29.1727 62.4165 28.8903 62.6311 29.6923L62.778 30.2402C62.9926 31.0394 59.8409 32.539 56.1244 33.4089L45.195 35.9506C42.4076 36.6114 40.2302 36.651 40.058 36.0551Z" fill="#E4D35E"/>
<path d="M40.0749 36.0353C39.4592 36.0353 38.9452 33.9709 38.8322 31.1383L38.4369 19.9294C38.3013 16.0858 38.9367 12.5867 39.7727 12.5867H40.3375C41.165 12.5867 41.7976 16.0208 41.6761 19.8362L41.3118 31.0479C41.2214 33.9088 40.6962 36.024 40.0749 36.0353Z" fill="#E4D35E"/>
<path d="M40.0324 36.0353C40.648 36.0353 41.162 38.0997 41.275 40.9295L41.6732 52.1412C41.8087 55.982 41.1733 59.4839 40.3374 59.4839H39.7726C38.9451 59.4839 38.3125 56.0526 38.4339 52.2372L38.7982 41.0198C38.8858 38.159 39.4111 36.0438 40.0324 36.0353Z" fill="#E4D35E"/>
<path d="M40.0748 36.0296C39.4817 36.1963 38.4368 34.3352 37.6065 31.6212L34.3221 20.8895C33.1924 17.2182 32.91 13.6739 33.7121 13.4565L34.2599 13.3096C35.0592 13.095 36.5588 16.2467 37.4286 19.9632L39.9703 30.8926C40.6312 33.68 40.6707 35.8489 40.0748 36.0296Z" fill="#E4D35E"/>
<path d="M40.0324 36.0409C40.6255 35.8715 41.6704 37.7354 42.5007 40.4494L45.7851 51.181C46.9148 54.8524 47.1972 58.3995 46.3951 58.6141L45.8473 58.761C45.048 58.9756 43.5484 55.8239 42.6786 52.1073L40.1369 41.1808C39.476 38.3906 39.4365 36.2104 40.0324 36.0409Z" fill="#E4D35E"/>
<path d="M40.072 36.024C39.5439 36.3403 38.0527 34.8068 36.5475 32.4035L30.5999 22.8947C28.5524 19.6357 27.3635 16.2891 28.0864 15.8711L28.5778 15.5887C29.2923 15.1764 31.5573 17.8311 33.3534 21.1974L38.6486 31.0818C40.0014 33.6094 40.6029 35.7049 40.072 36.024Z" fill="#E4D35E"/>
<path d="M40.0352 36.0466C40.5633 35.7303 42.0545 37.261 43.5597 39.6643L49.5073 49.1731C51.5463 52.4322 52.7438 55.7787 52.0208 56.1967L51.5294 56.4791C50.8121 56.8943 48.5471 54.2368 46.7482 50.8704L41.4529 40.986C40.1058 38.4584 39.5015 36.3629 40.0352 36.0466Z" fill="#E4D35E"/>
<path d="M40.0691 36.0184C39.6399 36.4618 37.8099 35.366 35.7285 33.4343L27.5216 25.7894C24.6975 23.1686 22.6839 20.2485 23.2854 19.6583L23.6864 19.2572C24.2626 18.6698 27.1403 20.6495 29.747 23.4228L37.4229 31.6127C39.3772 33.7054 40.5012 35.5665 40.0691 36.0184Z" fill="#E4D35E"/>
<path d="M40.0381 36.0495C40.4674 35.6089 42.2974 36.7018 44.3788 38.6335L52.5857 46.2784C55.4098 48.8992 57.4234 51.8221 56.8218 52.4124L56.4236 52.8134C55.8362 53.398 52.9613 51.4183 50.3518 48.6337L42.673 40.4466C40.73 38.3624 39.606 36.4957 40.0381 36.0495Z" fill="#E4D35E"/>
<path d="M40.0636 36.0155C39.7642 36.5521 37.7054 35.9732 35.2032 34.643L25.2962 29.3845C21.8988 27.5799 19.1905 25.2811 19.6085 24.5525L19.8909 24.0611C20.306 23.3437 23.5961 24.5129 26.8382 26.5265L36.3696 32.46C38.7955 33.9624 40.3657 35.4733 40.0636 36.0155Z" fill="#E4D35E"/>
<path d="M40.0409 36.0551C40.3403 35.5157 42.4019 36.0974 44.9041 37.4248L54.8167 42.6861C58.2057 44.4879 60.9225 46.7867 60.5045 47.5125L60.2221 48.0011C59.8069 48.7184 56.5168 47.5521 53.2747 45.5356L43.7434 39.605C41.309 38.1082 39.7416 36.5945 40.0409 36.0551Z" fill="#E4D35E"/>
<path d="M40.0579 36.0127C39.9082 36.6114 37.7703 36.5775 35.0084 35.9449L24.0762 33.4286C20.3286 32.5673 17.1176 31.0479 17.335 30.2402L17.4819 29.6923C17.6965 28.8931 21.1758 29.1698 24.8246 30.2769L35.5562 33.5303C38.3041 34.3578 40.2104 35.4112 40.0579 36.0127Z" fill="#E4D35E"/>
<path d="M40.0466 36.0551C40.1962 35.4592 42.3369 35.4902 45.0989 36.1229L56.0283 38.6391C59.7759 39.5033 62.9897 41.0227 62.7722 41.8276L62.6254 42.3755C62.4108 43.1747 58.9314 42.8979 55.2827 41.7937L44.551 38.5403C41.8032 37.7128 39.8969 36.6566 40.0466 36.0551Z" fill="#E4D35E"/>
<path d="M40.0523 36.0127C40.0523 36.6284 37.9907 37.1424 35.1581 37.2553L23.9463 37.6535C20.1055 37.7891 16.6036 37.1537 16.6036 36.3177V35.7529C16.6036 34.9254 20.0349 34.2928 23.8503 34.4143L35.0734 34.7758C37.9286 34.8661 40.0438 35.3914 40.0523 36.0127Z" fill="#E4D35E"/>
<path d="M40.0522 36.0579C40.0522 35.4422 42.1167 34.9282 44.9493 34.8124L56.1582 34.4171C60.0018 34.2787 63.5009 34.9141 63.5009 35.75V36.3149C63.5009 37.1423 60.0668 37.7778 56.2514 37.6535L45.0368 37.292C42.1788 37.2016 40.0635 36.6764 40.0522 36.0579Z" fill="#E4D35E"/>
<path d="M40.0466 36.0127C40.2161 36.6057 38.3522 37.6507 35.641 38.481L24.915 41.7795C21.2436 42.9092 17.6966 43.1916 17.4819 42.3895L17.3351 41.8417C17.1204 41.0283 20.2721 39.5202 23.9887 38.673L34.918 36.1313C37.6998 35.4563 39.8772 35.4168 40.0466 36.0127Z" fill="#E4D35E"/>
<path d="M40.041 36.0155C40.3601 36.5436 38.8266 38.0376 36.4233 39.54L26.9145 45.4876C23.6555 47.5294 20.3089 48.7269 19.8909 48.0011L19.6085 47.5125C19.1934 46.7952 21.8508 44.5302 25.2172 42.7284L35.1016 37.4332C37.6292 36.0861 39.7247 35.4846 40.041 36.0155Z" fill="#E4D35E"/>
<path d="M40.0635 36.0551C39.7472 35.5241 41.2807 34.033 43.6841 32.5306L53.1929 26.5801C56.4519 24.5411 59.7985 23.3437 60.2164 24.0667L60.4988 24.5581C60.9112 25.2754 58.2565 27.5403 54.8902 29.3393L45.0057 34.6345C42.4782 35.9816 40.3827 36.586 40.0635 36.0551Z" fill="#E4D35E"/>
<path d="M40.0381 36.0183C40.4815 36.4476 39.3857 38.2776 37.454 40.359L29.8091 48.5574C27.1883 51.3815 24.2654 53.3951 23.6751 52.7936L23.2741 52.3926C22.6895 51.808 24.6692 48.9302 27.4538 46.3207L35.6409 38.673C37.7251 36.7131 39.5919 35.5891 40.0381 36.0183Z" fill="#E4D35E"/>
<path d="M40.0692 36.0494C39.6258 35.623 40.7216 33.7901 42.6533 31.7088L50.2982 23.5019C52.9189 20.6778 55.8391 18.6642 56.4321 19.2657L56.8303 19.6667C57.4178 20.2513 55.4381 23.1263 52.6535 25.7358L44.4635 33.4117C42.3906 35.3575 40.5154 36.4815 40.0692 36.0494Z" fill="#E4D35E"/>
<path d="M40.0353 36.024C40.5718 36.3234 39.9901 38.3821 38.6627 40.8843L33.4014 50.7913C31.5996 54.1803 29.3008 56.8971 28.5778 56.4791L28.0864 56.1967C27.3691 55.7815 28.5354 52.4914 30.5519 49.2493L36.4825 39.718C37.9793 37.292 39.493 35.7218 40.0353 36.024Z" fill="#E4D35E"/>
<path d="M40.072 36.0466C39.5354 35.7472 40.1144 33.6856 41.4445 31.1835L46.7059 21.2764C48.5077 17.8875 50.8065 15.1707 51.5295 15.5887L52.0209 15.8711C52.7382 16.2862 51.569 19.5763 49.5554 22.8184L43.6248 32.3498C42.1251 34.7786 40.6142 36.3459 40.072 36.0466Z" fill="#E4D35E"/>
<path d="M40.0324 36.0297C40.6283 36.1794 40.5972 38.3172 39.9646 41.0792L37.4483 52.0113C36.5842 55.7589 35.0676 58.97 34.2599 58.7525L33.712 58.6057C32.9128 58.3939 33.1896 54.9117 34.2938 51.263L37.5472 40.5313C38.3775 37.7863 39.4309 35.8772 40.0324 36.0297Z" fill="#E4D35E"/>
<path d="M40.0748 36.041C39.4789 35.8913 39.5099 33.7506 40.1425 30.9886L42.6729 20.0593C43.5202 16.3117 45.0537 13.0978 45.8614 13.3153L46.4093 13.4621C47.2085 13.6768 46.9317 17.1561 45.8247 20.8048L42.5741 31.5365C41.7297 34.2844 40.6763 36.1906 40.0748 36.041Z" fill="#E4D35E"/>
<path d="M40.0523 42.5138C43.6302 42.5138 46.5308 39.6133 46.5308 36.0353C46.5308 32.4573 43.6302 29.5568 40.0523 29.5568C36.4743 29.5568 33.5737 32.4573 33.5737 36.0353C33.5737 39.6133 36.4743 42.5138 40.0523 42.5138Z" fill="#DB994E"/>
<path d="M40.1595 28.8875C40.8521 28.8875 41.4135 28.3261 41.4135 27.6335C41.4135 26.941 40.8521 26.3796 40.1595 26.3796C39.467 26.3796 38.9056 26.941 38.9056 27.6335C38.9056 28.3261 39.467 28.8875 40.1595 28.8875Z" fill="#DB994E"/>
<path d="M40.1595 45.674C40.8521 45.674 41.4135 45.1126 41.4135 44.4201C41.4135 43.7276 40.8521 43.1662 40.1595 43.1662C39.467 43.1662 38.9056 43.7276 38.9056 44.4201C38.9056 45.1126 39.467 45.674 40.1595 45.674Z" fill="#DB994E"/>
<path d="M36.059 30.0567C36.7453 30.0567 37.3016 29.5003 37.3016 28.8141C37.3016 28.1278 36.7453 27.5714 36.059 27.5714C35.3727 27.5714 34.8164 28.1278 34.8164 28.8141C34.8164 29.5003 35.3727 30.0567 36.059 30.0567Z" fill="#DB994E"/>
<path d="M44.3901 44.485C45.0764 44.485 45.6327 43.9287 45.6327 43.2424C45.6327 42.5562 45.0764 41.9998 44.3901 41.9998C43.7038 41.9998 43.1475 42.5562 43.1475 43.2424C43.1475 43.9287 43.7038 44.485 44.3901 44.485Z" fill="#DB994E"/>
<path d="M33.0117 33.1067C33.6979 33.1067 34.2543 32.5503 34.2543 31.8641C34.2543 31.1778 33.6979 30.6215 33.0117 30.6215C32.3254 30.6215 31.769 31.1778 31.769 31.8641C31.769 32.5503 32.3254 33.1067 33.0117 33.1067Z" fill="#DB994E"/>
<path d="M47.4401 41.435C48.1264 41.435 48.6827 40.8787 48.6827 40.1924C48.6827 39.5061 48.1264 38.9498 47.4401 38.9498C46.7538 38.9498 46.1975 39.5061 46.1975 40.1924C46.1975 40.8787 46.7538 41.435 47.4401 41.435Z" fill="#DB994E"/>
<path d="M31.7664 37.2808C32.4589 37.2808 33.0203 36.7194 33.0203 36.0269C33.0203 35.3343 32.4589 34.7729 31.7664 34.7729C31.0738 34.7729 30.5125 35.3343 30.5125 36.0269C30.5125 36.7194 31.0738 37.2808 31.7664 37.2808Z" fill="#DB994E"/>
<path d="M48.5529 37.2808C49.2454 37.2808 49.8068 36.7194 49.8068 36.0269C49.8068 35.3343 49.2454 34.7729 48.5529 34.7729C47.8603 34.7729 47.299 35.3343 47.299 36.0269C47.299 36.7194 47.8603 37.2808 48.5529 37.2808Z" fill="#DB994E"/>
<path d="M32.8931 41.4774C33.5856 41.4774 34.147 40.916 34.147 40.2235C34.147 39.531 33.5856 38.9696 32.8931 38.9696C32.2006 38.9696 31.6392 39.531 31.6392 40.2235C31.6392 40.916 32.2006 41.4774 32.8931 41.4774Z" fill="#DB994E"/>
<path d="M47.4288 33.0841C48.1214 33.0841 48.6828 32.5227 48.6828 31.8302C48.6828 31.1377 48.1214 30.5763 47.4288 30.5763C46.7363 30.5763 46.1749 31.1377 46.1749 31.8302C46.1749 32.5227 46.7363 33.0841 47.4288 33.0841Z" fill="#DB994E"/>
<path d="M35.9629 44.55C36.6554 44.55 37.2168 43.9886 37.2168 43.2961C37.2168 42.6036 36.6554 42.0422 35.9629 42.0422C35.2704 42.0422 34.709 42.6036 34.709 43.2961C34.709 43.9886 35.2704 44.55 35.9629 44.55Z" fill="#DB994E"/>
<path d="M44.3562 30.0143C45.0487 30.0143 45.6101 29.4529 45.6101 28.7603C45.6101 28.0678 45.0487 27.5064 44.3562 27.5064C43.6637 27.5064 43.1023 28.0678 43.1023 28.7603C43.1023 29.4529 43.6637 30.0143 44.3562 30.0143Z" fill="#DB994E"/>
<defs>
<filter id="filter0_d_23_1651" x="0" y="0" width="80" height="80" filterUnits="userSpaceOnUse" color-interpolation-filters="sRGB">
<feFlood flood-opacity="0" result="BackgroundImageFix"/>
<feColorMatrix in="SourceAlpha" type="matrix" values="0 0 0 0 0 0 0 0 0 0 0 0 0 0 0 0 0 0 127 0" result="hardAlpha"/>
<feOffset dy="4"/>
<feGaussianBlur stdDeviation="2"/>
<feColorMatrix type="matrix" values="0 0 0 0 0 0 0 0 0 0 0 0 0 0 0 0 0 0 0.25 0"/>
<feBlend mode="normal" in2="BackgroundImageFix" result="effect1_dropShadow_23_1651"/>
<feBlend mode="normal" in="SourceGraphic" in2="effect1_dropShadow_23_1651" result="shape"/>
</filter>
</defs>
</svg>
