<svg width="72" height="72" viewBox="0 0 72 72" fill="none" xmlns="http://www.w3.org/2000/svg">
<path d="M72 36C72 55.8823 55.8823 72 36 72C16.1177 72 0 55.8823 0 36C0 16.1177 16.1177 0 36 0C55.8823 0 72 16.1177 72 36Z" fill="#F5EFE9"/>
<path d="M65.9368 36C65.9368 52.5337 52.5336 65.9368 36 65.9368C19.4663 65.9368 6.06311 52.5337 6.06311 36C6.06311 19.4663 19.4663 6.06316 36 6.06316C52.5336 6.06316 65.9368 19.4663 65.9368 36Z" fill="#FFFCF9"/>
<path d="M37.5656 15.5547C37.5656 15.5547 38.6383 19.6667 41.354 16.6095C44.0697 13.5522 41.2979 15.2368 47.4267 10.122C47.4267 10.122 46.8859 9.51056 44.8883 10.5439C43.6308 11.2168 42.2349 11.5661 40.8191 11.562C38.9338 11.5406 36.5697 12.1459 37.5656 15.5547Z" fill="#6C844C"/>
<path d="M38.1566 33.8064C38.1566 33.8064 34.7967 33.6719 34.7258 31.2047C34.6549 28.7375 30.8398 26.8482 30.8398 26.8482C30.8398 26.8482 36.091 25.9524 38.1566 29.2725C40.2222 32.5927 38.1566 33.8064 38.1566 33.8064Z" fill="#6C844C"/>
<path d="M39.0756 39.8781C39.0756 39.8781 43.5733 41.4923 46.8416 33.8156C46.8416 33.8064 37.7518 32.3267 39.0756 39.8781Z" fill="#6C844C"/>
<path d="M33.2719 54.4061C33.2719 54.4061 35.0449 51.9878 31.9982 50.4317C28.9515 48.8756 29.2352 45.9926 29.2352 45.9926C29.2352 45.9926 26.682 51.5231 30.3818 54.8066C30.3818 54.7944 31.6998 55.8308 33.2719 54.4061Z" fill="#6C844C"/>
<path d="M33.1832 9.11307L33.003 9.20478C32.8388 9.28764 32.6952 9.40816 32.5829 9.55716C32.4706 9.70616 32.3927 9.87972 32.3551 10.0646C32.3174 10.2495 32.3211 10.4408 32.3658 10.624C32.4105 10.8072 32.495 10.9774 32.6129 11.1217C34.3209 13.2128 37.4858 17.9179 37.341 23.8979C37.1253 32.0638 38.5615 38.6124 34.0904 49.7713C31.5786 55.9714 30.6596 58.8115 30.3079 60.1139C30.0395 61.1231 29.642 62.0906 29.1259 62.9908H31.6525C31.6525 62.9908 33.4255 63.4891 33.2541 57.876C33.0827 52.2629 41.4161 51.3305 40.0508 22.837C40.0508 22.837 39.7553 14.0199 34.3682 9.27204C34.2084 9.12658 34.0103 9.03375 33.7992 9.00543C33.5881 8.97711 33.3736 9.01459 33.1832 9.11307Z" fill="#9AAC63"/>
<path d="M40.0301 30.9571C39.7099 31.0509 39.4287 31.2517 39.2303 31.5282C39.032 31.8048 38.9277 32.1414 38.9338 32.4857C38.9545 33.4029 39.4923 34.8123 41.7559 36.5121C45.9314 39.6549 48 41.1377 48 41.1377C48 41.1377 45.6005 38.9365 44.4007 34.0449C43.5319 30.4863 41.2329 30.6177 40.0301 30.9571Z" fill="#6C844C"/>
<path d="M33.0975 15.8513C33.0975 15.8513 37.0455 13.4238 37.669 17.655C38.2926 21.8863 35.6832 20.5319 34.1377 23.2406C32.5922 25.9493 31.2801 27.9793 31.2801 27.9793C31.2801 27.9793 30.3641 17.1109 33.0975 15.8513Z" fill="#6C844C"/>
<path d="M37.5774 39.0588C37.5774 39.0588 39.1081 42.5165 35.2636 44.1766C31.419 45.8367 32.2435 45.3445 32.2435 45.3445C32.2435 45.3445 32.2435 35.8273 37.5774 39.0588Z" fill="#6C844C"/>
<path d="M36.4899 54.2777C36.3209 54.0545 36.106 53.873 35.8608 53.7463C35.6156 53.6196 35.3462 53.5508 35.0722 53.545C34.7982 53.5391 34.5263 53.5963 34.2763 53.7125C34.0263 53.8286 33.8043 54.0008 33.6265 54.2166C33.2778 54.6476 33.0857 55.2744 33.4137 56.164C34.2323 58.3866 35.6655 57.6743 36.9775 61.5417C36.9775 61.5417 38.1389 56.4575 36.4899 54.2777Z" fill="#6C844C"/>
</svg>
