<svg width="72" height="102" viewBox="0 0 72 102" fill="none" xmlns="http://www.w3.org/2000/svg">
<circle cx="36" cy="36" r="36" fill="#F59859" fill-opacity="0.5"/>
<circle cx="36" cy="36" r="30" fill="#F59859"/>
<path d="M13.0951 93.192C12.1885 93.192 11.3885 92.9733 10.6951 92.536C10.0018 92.088 9.45779 91.4587 9.06313 90.648C8.67913 89.8267 8.48713 88.8507 8.48713 87.72C8.48713 86.5893 8.67913 85.624 9.06313 84.824C9.45779 84.024 10.0018 83.4107 10.6951 82.984C11.3885 82.5573 12.1885 82.344 13.0951 82.344C14.0125 82.344 14.8178 82.5573 15.5111 82.984C16.2045 83.4107 16.7431 84.024 17.1271 84.824C17.5218 85.624 17.7191 86.5893 17.7191 87.72C17.7191 88.8507 17.5218 89.8267 17.1271 90.648C16.7431 91.4587 16.2045 92.088 15.5111 92.536C14.8178 92.9733 14.0125 93.192 13.0951 93.192ZM13.0951 91.576C13.9165 91.576 14.5725 91.2293 15.0631 90.536C15.5538 89.832 15.7991 88.8933 15.7991 87.72C15.7991 86.5467 15.5538 85.6293 15.0631 84.968C14.5725 84.296 13.9165 83.96 13.0951 83.96C12.2738 83.96 11.6178 84.296 11.1271 84.968C10.6365 85.6293 10.3911 86.5467 10.3911 87.72C10.3911 88.8933 10.6365 89.832 11.1271 90.536C11.6178 91.2293 12.2738 91.576 13.0951 91.576ZM19.6524 93V85.144H21.1724L21.3004 86.536H21.3644C21.6417 86.024 21.9777 85.6347 22.3724 85.368C22.767 85.0907 23.1724 84.952 23.5884 84.952C23.9617 84.952 24.2604 85.0053 24.4844 85.112L24.1644 86.712C24.0257 86.6693 23.8977 86.6373 23.7804 86.616C23.663 86.5947 23.519 86.584 23.3484 86.584C23.039 86.584 22.7137 86.7067 22.3724 86.952C22.031 87.1867 21.7377 87.6027 21.4924 88.2V93H19.6524ZM27.1033 93.192C26.4206 93.192 25.8606 92.9787 25.4233 92.552C24.9966 92.1253 24.7833 91.5707 24.7833 90.888C24.7833 90.0453 25.1513 89.3947 25.8873 88.936C26.6233 88.4667 27.7966 88.1467 29.4073 87.976C29.3966 87.56 29.2846 87.2027 29.0713 86.904C28.8686 86.5947 28.5006 86.44 27.9673 86.44C27.5833 86.44 27.2046 86.5147 26.8313 86.664C26.4686 86.8133 26.1113 86.9947 25.7593 87.208L25.0872 85.976C25.5246 85.6987 26.0153 85.4587 26.5593 85.256C27.1139 85.0533 27.7006 84.952 28.3193 84.952C29.3006 84.952 30.0313 85.2453 30.5113 85.832C31.0019 86.408 31.2473 87.2453 31.2473 88.344V93H29.7273L29.5993 92.136H29.5353C29.1833 92.4347 28.8046 92.6853 28.3993 92.888C28.0046 93.0907 27.5726 93.192 27.1033 93.192ZM27.6953 91.752C28.0153 91.752 28.3033 91.6773 28.5593 91.528C28.8259 91.368 29.1086 91.1547 29.4073 90.888V89.128C28.3406 89.2667 27.5993 89.4747 27.1833 89.752C26.7673 90.0187 26.5593 90.3493 26.5593 90.744C26.5593 91.096 26.6659 91.352 26.8793 91.512C27.0926 91.672 27.3646 91.752 27.6953 91.752ZM33.4493 93V85.144H34.9693L35.0973 86.2H35.1613C35.5133 85.8587 35.8973 85.5653 36.3133 85.32C36.7293 85.0747 37.2039 84.952 37.7373 84.952C38.5799 84.952 39.1933 85.224 39.5773 85.768C39.9613 86.312 40.1533 87.08 40.1533 88.072V93H38.3133V88.312C38.3133 87.6613 38.2173 87.2027 38.0253 86.936C37.8333 86.6693 37.5186 86.536 37.0813 86.536C36.7399 86.536 36.4359 86.6213 36.1693 86.792C35.9133 86.952 35.6199 87.192 35.2893 87.512V93H33.4493ZM45.1384 96.472C44.5197 96.472 43.9597 96.3973 43.4584 96.248C42.9677 96.0987 42.5784 95.8693 42.2904 95.56C42.013 95.2613 41.8744 94.8827 41.8744 94.424C41.8744 93.7733 42.2477 93.2133 42.9944 92.744V92.68C42.7917 92.552 42.621 92.3813 42.4824 92.168C42.3544 91.9547 42.2904 91.688 42.2904 91.368C42.2904 91.0587 42.3757 90.7813 42.5464 90.536C42.7277 90.28 42.9304 90.072 43.1544 89.912V89.848C42.8877 89.6453 42.6477 89.3627 42.4344 89C42.2317 88.6373 42.1304 88.2267 42.1304 87.768C42.1304 87.16 42.2744 86.648 42.5624 86.232C42.8504 85.816 43.229 85.5013 43.6984 85.288C44.1784 85.064 44.6904 84.952 45.2344 84.952C45.4477 84.952 45.6504 84.9733 45.8424 85.016C46.045 85.048 46.2264 85.0907 46.3864 85.144H49.2024V86.504H47.7624C47.8904 86.6533 47.997 86.8453 48.0824 87.08C48.1677 87.304 48.2104 87.5547 48.2104 87.832C48.2104 88.408 48.077 88.8987 47.8104 89.304C47.5437 89.6987 47.1864 89.9973 46.7384 90.2C46.2904 90.4027 45.789 90.504 45.2344 90.504C45.0637 90.504 44.8877 90.488 44.7064 90.456C44.525 90.424 44.3437 90.3707 44.1624 90.296C44.045 90.4027 43.949 90.5093 43.8744 90.616C43.8104 90.7227 43.7784 90.8667 43.7784 91.048C43.7784 91.272 43.869 91.448 44.0504 91.576C44.2424 91.704 44.5784 91.768 45.0584 91.768H46.4504C47.3997 91.768 48.1144 91.9227 48.5944 92.232C49.085 92.5307 49.3304 93.0213 49.3304 93.704C49.3304 94.216 49.1597 94.68 48.8184 95.096C48.477 95.5227 47.9917 95.8587 47.3624 96.104C46.733 96.3493 45.9917 96.472 45.1384 96.472ZM45.2344 89.352C45.6077 89.352 45.9277 89.2133 46.1944 88.936C46.461 88.6587 46.5944 88.2693 46.5944 87.768C46.5944 87.2773 46.461 86.8987 46.1944 86.632C45.9384 86.3547 45.6184 86.216 45.2344 86.216C44.8504 86.216 44.525 86.3493 44.2584 86.616C43.9917 86.8827 43.8584 87.2667 43.8584 87.768C43.8584 88.2693 43.9917 88.6587 44.2584 88.936C44.525 89.2133 44.8504 89.352 45.2344 89.352ZM45.4264 95.272C46.0557 95.272 46.5677 95.144 46.9624 94.888C47.357 94.632 47.5544 94.3387 47.5544 94.008C47.5544 93.6987 47.4317 93.4907 47.1864 93.384C46.9517 93.2773 46.6104 93.224 46.1624 93.224H45.0904C44.6637 93.224 44.3064 93.1867 44.0184 93.112C43.613 93.4213 43.4104 93.768 43.4104 94.152C43.4104 94.504 43.5917 94.776 43.9544 94.968C44.317 95.1707 44.8077 95.272 45.4264 95.272ZM53.8249 93.192C53.0995 93.192 52.4435 93.032 51.8569 92.712C51.2702 92.3813 50.8062 91.912 50.4649 91.304C50.1235 90.6853 49.9529 89.944 49.9529 89.08C49.9529 88.2267 50.1235 87.4907 50.4649 86.872C50.8169 86.2533 51.2702 85.7787 51.8249 85.448C52.3795 85.1173 52.9609 84.952 53.5689 84.952C54.2835 84.952 54.8809 85.112 55.3609 85.432C55.8409 85.7413 56.2035 86.1787 56.4489 86.744C56.6942 87.2987 56.8169 87.944 56.8169 88.68C56.8169 89.064 56.7902 89.3627 56.7369 89.576H51.7449C51.8302 90.2693 52.0809 90.808 52.4969 91.192C52.9129 91.576 53.4355 91.768 54.0649 91.768C54.4062 91.768 54.7209 91.72 55.0089 91.624C55.3075 91.5173 55.6009 91.3733 55.8889 91.192L56.5129 92.344C56.1395 92.5893 55.7235 92.792 55.2649 92.952C54.8062 93.112 54.3262 93.192 53.8249 93.192ZM51.7289 88.328H55.2169C55.2169 87.72 55.0835 87.2453 54.8169 86.904C54.5502 86.552 54.1502 86.376 53.6169 86.376C53.1582 86.376 52.7475 86.5467 52.3849 86.888C52.0329 87.2187 51.8142 87.6987 51.7289 88.328ZM60.7663 93.192C60.2329 93.192 59.6996 93.0907 59.1663 92.888C58.6329 92.6747 58.1743 92.4133 57.7903 92.104L58.6543 90.92C59.0063 91.1867 59.3583 91.4 59.7103 91.56C60.0623 91.72 60.4356 91.8 60.8303 91.8C61.2569 91.8 61.5716 91.7093 61.7743 91.528C61.9769 91.3467 62.0783 91.1227 62.0783 90.856C62.0783 90.632 61.9929 90.4507 61.8223 90.312C61.6623 90.1627 61.4543 90.0347 61.1983 89.928C60.9423 89.8107 60.6756 89.6987 60.3983 89.592C60.0569 89.464 59.7156 89.3093 59.3743 89.128C59.0436 88.936 58.7716 88.696 58.5583 88.408C58.3449 88.1093 58.2383 87.7413 58.2383 87.304C58.2383 86.6107 58.4943 86.0453 59.0063 85.608C59.5183 85.1707 60.2116 84.952 61.0863 84.952C61.6409 84.952 62.1369 85.048 62.5743 85.24C63.0116 85.432 63.3903 85.6507 63.7103 85.896L62.8623 87.016C62.5849 86.8133 62.3023 86.6533 62.0143 86.536C61.7369 86.408 61.4436 86.344 61.1343 86.344C60.7396 86.344 60.4463 86.4293 60.2543 86.6C60.0623 86.76 59.9663 86.9627 59.9663 87.208C59.9663 87.5173 60.1263 87.752 60.4463 87.912C60.7663 88.072 61.1396 88.2267 61.5663 88.376C61.9289 88.504 62.2809 88.664 62.6223 88.856C62.9636 89.0373 63.2463 89.2773 63.4703 89.576C63.7049 89.8747 63.8223 90.2693 63.8223 90.76C63.8223 91.432 63.5609 92.008 63.0383 92.488C62.5156 92.9573 61.7583 93.192 60.7663 93.192Z" fill="#3B4549"/>
</svg>
