<svg width="72" height="102" viewBox="0 0 72 102" fill="none" xmlns="http://www.w3.org/2000/svg">
<circle cx="36" cy="36" r="36" fill="#FFC0BC" fill-opacity="0.5"/>
<circle cx="36" cy="36" r="30" fill="#FFC0BC"/>
<path d="M18.4764 93V82.536H21.7724C22.5511 82.536 23.2444 82.6373 23.8524 82.84C24.4604 83.0427 24.9404 83.3787 25.2924 83.848C25.6444 84.3173 25.8204 84.9573 25.8204 85.768C25.8204 86.536 25.6444 87.1707 25.2924 87.672C24.9404 88.1733 24.4658 88.5467 23.8684 88.792C23.2711 89.0373 22.5938 89.16 21.8364 89.16H20.3324V93H18.4764ZM20.3324 87.672H21.6924C23.2284 87.672 23.9964 87.0373 23.9964 85.768C23.9964 85.1067 23.7938 84.6533 23.3884 84.408C22.9938 84.152 22.4071 84.024 21.6284 84.024H20.3324V87.672ZM27.6289 93V85.144H29.4689V93H27.6289ZM28.5569 83.768C28.2263 83.768 27.9596 83.672 27.7569 83.48C27.5543 83.288 27.4529 83.032 27.4529 82.712C27.4529 82.4027 27.5543 82.152 27.7569 81.96C27.9596 81.768 28.2263 81.672 28.5569 81.672C28.8876 81.672 29.1543 81.768 29.3569 81.96C29.5596 82.152 29.6609 82.4027 29.6609 82.712C29.6609 83.032 29.5596 83.288 29.3569 83.48C29.1543 83.672 28.8876 83.768 28.5569 83.768ZM31.8164 93V85.144H33.3364L33.4644 86.2H33.5284C33.8804 85.8587 34.2644 85.5653 34.6804 85.32C35.0964 85.0747 35.5711 84.952 36.1044 84.952C36.9471 84.952 37.5604 85.224 37.9444 85.768C38.3284 86.312 38.5204 87.08 38.5204 88.072V93H36.6804V88.312C36.6804 87.6613 36.5844 87.2027 36.3924 86.936C36.2004 86.6693 35.8858 86.536 35.4484 86.536C35.1071 86.536 34.8031 86.6213 34.5364 86.792C34.2804 86.952 33.9871 87.192 33.6564 87.512V93H31.8164ZM40.7696 93V81.704H42.5776V88.76H42.6256L45.5376 85.144H47.5536L44.8656 88.344L47.8256 93H45.8256L43.8096 89.592L42.5776 91V93H40.7696ZM51.3209 93.192C50.7876 93.192 50.2543 93.0907 49.7209 92.888C49.1876 92.6747 48.7289 92.4133 48.3449 92.104L49.2089 90.92C49.5609 91.1867 49.9129 91.4 50.2649 91.56C50.6169 91.72 50.9903 91.8 51.3849 91.8C51.8116 91.8 52.1263 91.7093 52.3289 91.528C52.5316 91.3467 52.6329 91.1227 52.6329 90.856C52.6329 90.632 52.5476 90.4507 52.3769 90.312C52.2169 90.1627 52.0089 90.0347 51.7529 89.928C51.4969 89.8107 51.2303 89.6987 50.9529 89.592C50.6116 89.464 50.2703 89.3093 49.9289 89.128C49.5983 88.936 49.3263 88.696 49.1129 88.408C48.8996 88.1093 48.7929 87.7413 48.7929 87.304C48.7929 86.6107 49.0489 86.0453 49.5609 85.608C50.0729 85.1707 50.7663 84.952 51.6409 84.952C52.1956 84.952 52.6916 85.048 53.1289 85.24C53.5663 85.432 53.9449 85.6507 54.2649 85.896L53.4169 87.016C53.1396 86.8133 52.8569 86.6533 52.5689 86.536C52.2916 86.408 51.9983 86.344 51.6889 86.344C51.2943 86.344 51.0009 86.4293 50.8089 86.6C50.6169 86.76 50.5209 86.9627 50.5209 87.208C50.5209 87.5173 50.6809 87.752 51.0009 87.912C51.3209 88.072 51.6943 88.2267 52.1209 88.376C52.4836 88.504 52.8356 88.664 53.1769 88.856C53.5183 89.0373 53.8009 89.2773 54.0249 89.576C54.2596 89.8747 54.3769 90.2693 54.3769 90.76C54.3769 91.432 54.1156 92.008 53.5929 92.488C53.0703 92.9573 52.3129 93.192 51.3209 93.192Z" fill="#3B4549"/>
</svg>
