<svg width="72" height="102" viewBox="0 0 72 102" fill="none" xmlns="http://www.w3.org/2000/svg">
<path d="M20.6561 93V82.536H24.1921C24.9175 82.536 25.5681 82.632 26.1441 82.824C26.7308 83.016 27.1895 83.3413 27.5201 83.8C27.8615 84.248 28.0321 84.8613 28.0321 85.64C28.0321 86.44 27.8401 87.0853 27.4561 87.576C27.0828 88.0667 26.5815 88.4187 25.9521 88.632L28.4481 93H26.3681L24.1121 88.904H22.5121V93H20.6561ZM22.5121 87.432H24.0001C24.7148 87.432 25.2588 87.2827 25.6321 86.984C26.0161 86.6747 26.2081 86.2267 26.2081 85.64C26.2081 85.0427 26.0161 84.6267 25.6321 84.392C25.2588 84.1467 24.7148 84.024 24.0001 84.024H22.5121V87.432ZM33.1686 93.192C32.4433 93.192 31.7873 93.032 31.2006 92.712C30.614 92.3813 30.15 91.912 29.8086 91.304C29.4673 90.6853 29.2966 89.944 29.2966 89.08C29.2966 88.2267 29.4673 87.4907 29.8086 86.872C30.1606 86.2533 30.614 85.7787 31.1686 85.448C31.7233 85.1173 32.3046 84.952 32.9126 84.952C33.6273 84.952 34.2246 85.112 34.7046 85.432C35.1846 85.7413 35.5473 86.1787 35.7926 86.744C36.038 87.2987 36.1606 87.944 36.1606 88.68C36.1606 89.064 36.134 89.3627 36.0806 89.576H31.0886C31.174 90.2693 31.4246 90.808 31.8406 91.192C32.2566 91.576 32.7793 91.768 33.4086 91.768C33.75 91.768 34.0646 91.72 34.3526 91.624C34.6513 91.5173 34.9446 91.3733 35.2326 91.192L35.8566 92.344C35.4833 92.5893 35.0673 92.792 34.6086 92.952C34.15 93.112 33.67 93.192 33.1686 93.192ZM31.0726 88.328H34.5606C34.5606 87.72 34.4273 87.2453 34.1606 86.904C33.894 86.552 33.494 86.376 32.9606 86.376C32.502 86.376 32.0913 86.5467 31.7286 86.888C31.3766 87.2187 31.158 87.6987 31.0726 88.328ZM40.67 93.192C39.6887 93.192 38.9047 92.8293 38.318 92.104C37.7313 91.3787 37.438 90.3707 37.438 89.08C37.438 88.2267 37.5927 87.4907 37.902 86.872C38.222 86.2533 38.638 85.7787 39.15 85.448C39.662 85.1173 40.2007 84.952 40.766 84.952C41.214 84.952 41.5927 85.032 41.902 85.192C42.222 85.3413 42.5313 85.5493 42.83 85.816L42.766 84.552V81.704H44.606V93H43.086L42.958 92.152H42.894C42.606 92.44 42.27 92.6853 41.886 92.888C41.502 93.0907 41.0967 93.192 40.67 93.192ZM41.118 91.672C41.7047 91.672 42.254 91.3787 42.766 90.792V87.128C42.4993 86.8827 42.2327 86.712 41.966 86.616C41.6993 86.52 41.4327 86.472 41.166 86.472C40.6647 86.472 40.2327 86.7013 39.87 87.16C39.518 87.608 39.342 88.2427 39.342 89.064C39.342 89.9067 39.4967 90.552 39.806 91C40.1153 91.448 40.5527 91.672 41.118 91.672ZM49.1413 93.192C48.6079 93.192 48.0746 93.0907 47.5413 92.888C47.0079 92.6747 46.5493 92.4133 46.1653 92.104L47.0293 90.92C47.3813 91.1867 47.7333 91.4 48.0853 91.56C48.4373 91.72 48.8106 91.8 49.2053 91.8C49.6319 91.8 49.9466 91.7093 50.1493 91.528C50.3519 91.3467 50.4533 91.1227 50.4533 90.856C50.4533 90.632 50.3679 90.4507 50.1973 90.312C50.0373 90.1627 49.8293 90.0347 49.5733 89.928C49.3173 89.8107 49.0506 89.6987 48.7733 89.592C48.4319 89.464 48.0906 89.3093 47.7493 89.128C47.4186 88.936 47.1466 88.696 46.9333 88.408C46.7199 88.1093 46.6133 87.7413 46.6133 87.304C46.6133 86.6107 46.8693 86.0453 47.3813 85.608C47.8933 85.1707 48.5866 84.952 49.4613 84.952C50.0159 84.952 50.5119 85.048 50.9493 85.24C51.3866 85.432 51.7653 85.6507 52.0853 85.896L51.2373 87.016C50.9599 86.8133 50.6773 86.6533 50.3893 86.536C50.1119 86.408 49.8186 86.344 49.5093 86.344C49.1146 86.344 48.8213 86.4293 48.6293 86.6C48.4373 86.76 48.3413 86.9627 48.3413 87.208C48.3413 87.5173 48.5013 87.752 48.8213 87.912C49.1413 88.072 49.5146 88.2267 49.9413 88.376C50.3039 88.504 50.6559 88.664 50.9973 88.856C51.3386 89.0373 51.6213 89.2773 51.8453 89.576C52.0799 89.8747 52.1973 90.2693 52.1973 90.76C52.1973 91.432 51.9359 92.008 51.4133 92.488C50.8906 92.9573 50.1333 93.192 49.1413 93.192Z" fill="#3B4549"/>
<circle cx="36" cy="36" r="36" fill="#F2362A" fill-opacity="0.5"/>
<circle cx="36" cy="36" r="30" fill="#F2362A"/>
</svg>
