<svg width="72" height="102" viewBox="0 0 72 102" fill="none" xmlns="http://www.w3.org/2000/svg">
<circle cx="36" cy="36" r="36" fill="#F5EFE9"/>
<circle cx="36" cy="36" r="30" fill="white"/>
<path d="M15.6493 93L13.5693 82.536H15.4733L16.3853 87.816C16.4706 88.3707 16.5559 88.9307 16.6413 89.496C16.7373 90.0507 16.8226 90.6053 16.8973 91.16H16.9613C17.0786 90.6053 17.1906 90.0507 17.2973 89.496C17.4146 88.9307 17.5319 88.3707 17.6493 87.816L18.9293 82.536H20.5453L21.8253 87.816C21.9426 88.36 22.0599 88.9147 22.1773 89.48C22.2946 90.0347 22.4119 90.5947 22.5293 91.16H22.5933C22.6786 90.5947 22.7639 90.0347 22.8493 89.48C22.9346 88.9253 23.0146 88.3707 23.0893 87.816L24.0013 82.536H25.7773L23.7773 93H21.4733L20.1773 87.496C20.0919 87.0907 20.0066 86.6853 19.9213 86.28C19.8466 85.8747 19.7773 85.4747 19.7133 85.08H19.6493C19.5746 85.4747 19.4946 85.8747 19.4093 86.28C19.3346 86.6853 19.2546 87.0907 19.1693 87.496L17.9053 93H15.6493ZM27.2461 93V81.704H29.0861V84.616L29.0221 86.136C29.3528 85.8267 29.7208 85.5547 30.1261 85.32C30.5315 85.0747 31.0008 84.952 31.5341 84.952C32.3768 84.952 32.9901 85.224 33.3741 85.768C33.7581 86.312 33.9501 87.08 33.9501 88.072V93H32.1101V88.312C32.1101 87.6613 32.0141 87.2027 31.8221 86.936C31.6301 86.6693 31.3155 86.536 30.8781 86.536C30.5368 86.536 30.2328 86.6213 29.9661 86.792C29.7101 86.952 29.4168 87.192 29.0861 87.512V93H27.2461ZM36.168 93V85.144H38.008V93H36.168ZM37.096 83.768C36.7653 83.768 36.4987 83.672 36.296 83.48C36.0933 83.288 35.992 83.032 35.992 82.712C35.992 82.4027 36.0933 82.152 36.296 81.96C36.4987 81.768 36.7653 81.672 37.096 81.672C37.4267 81.672 37.6933 81.768 37.896 81.96C38.0987 82.152 38.2 82.4027 38.2 82.712C38.2 83.032 38.0987 83.288 37.896 83.48C37.6933 83.672 37.4267 83.768 37.096 83.768ZM43.1235 93.192C42.2168 93.192 41.5715 92.9307 41.1875 92.408C40.8142 91.8747 40.6275 91.1867 40.6275 90.344V86.6H39.5075V85.224L40.7235 85.144L40.9475 83H42.4835V85.144H44.4835V86.6H42.4835V90.344C42.4835 91.2613 42.8515 91.72 43.5875 91.72C43.7262 91.72 43.8702 91.704 44.0195 91.672C44.1688 91.6293 44.2968 91.5867 44.4035 91.544L44.7235 92.904C44.5102 92.9787 44.2648 93.0427 43.9875 93.096C43.7208 93.16 43.4328 93.192 43.1235 93.192ZM49.2468 93.192C48.5214 93.192 47.8654 93.032 47.2788 92.712C46.6921 92.3813 46.2281 91.912 45.8868 91.304C45.5454 90.6853 45.3748 89.944 45.3748 89.08C45.3748 88.2267 45.5454 87.4907 45.8868 86.872C46.2388 86.2533 46.6921 85.7787 47.2468 85.448C47.8014 85.1173 48.3828 84.952 48.9908 84.952C49.7054 84.952 50.3028 85.112 50.7828 85.432C51.2628 85.7413 51.6254 86.1787 51.8708 86.744C52.1161 87.2987 52.2388 87.944 52.2388 88.68C52.2388 89.064 52.2121 89.3627 52.1588 89.576H47.1668C47.2521 90.2693 47.5028 90.808 47.9188 91.192C48.3348 91.576 48.8574 91.768 49.4868 91.768C49.8281 91.768 50.1428 91.72 50.4308 91.624C50.7294 91.5173 51.0228 91.3733 51.3108 91.192L51.9348 92.344C51.5614 92.5893 51.1454 92.792 50.6868 92.952C50.2281 93.112 49.7481 93.192 49.2468 93.192ZM47.1508 88.328H50.6388C50.6388 87.72 50.5054 87.2453 50.2388 86.904C49.9721 86.552 49.5721 86.376 49.0388 86.376C48.5801 86.376 48.1694 86.5467 47.8068 86.888C47.4548 87.2187 47.2361 87.6987 47.1508 88.328ZM56.1881 93.192C55.6548 93.192 55.1215 93.0907 54.5881 92.888C54.0548 92.6747 53.5961 92.4133 53.2121 92.104L54.0761 90.92C54.4281 91.1867 54.7801 91.4 55.1321 91.56C55.4841 91.72 55.8575 91.8 56.2521 91.8C56.6788 91.8 56.9935 91.7093 57.1961 91.528C57.3988 91.3467 57.5001 91.1227 57.5001 90.856C57.5001 90.632 57.4148 90.4507 57.2441 90.312C57.0841 90.1627 56.8761 90.0347 56.6201 89.928C56.3641 89.8107 56.0975 89.6987 55.8201 89.592C55.4788 89.464 55.1375 89.3093 54.7961 89.128C54.4655 88.936 54.1935 88.696 53.9801 88.408C53.7668 88.1093 53.6601 87.7413 53.6601 87.304C53.6601 86.6107 53.9161 86.0453 54.4281 85.608C54.9401 85.1707 55.6335 84.952 56.5081 84.952C57.0628 84.952 57.5588 85.048 57.9961 85.24C58.4335 85.432 58.8121 85.6507 59.1321 85.896L58.2841 87.016C58.0068 86.8133 57.7241 86.6533 57.4361 86.536C57.1588 86.408 56.8655 86.344 56.5561 86.344C56.1615 86.344 55.8681 86.4293 55.6761 86.6C55.4841 86.76 55.3881 86.9627 55.3881 87.208C55.3881 87.5173 55.5481 87.752 55.8681 87.912C56.1881 88.072 56.5615 88.2267 56.9881 88.376C57.3508 88.504 57.7028 88.664 58.0441 88.856C58.3855 89.0373 58.6681 89.2773 58.8921 89.576C59.1268 89.8747 59.2441 90.2693 59.2441 90.76C59.2441 91.432 58.9828 92.008 58.4601 92.488C57.9375 92.9573 57.1801 93.192 56.1881 93.192Z" fill="#3B4549"/>
</svg>
