<svg width="80" height="102" viewBox="0 0 80 102" fill="none" xmlns="http://www.w3.org/2000/svg">
<g filter="url(#filter0_d_3_85)">
<circle cx="40" cy="36" r="36" fill="#FDD015" fill-opacity="0.5" shape-rendering="crispEdges"/>
</g>
<circle cx="40" cy="36" r="30" fill="#FDD015"/>
<path d="M20.2751 93V89.112L17.1391 82.536H19.1231L20.2591 85.208C20.4085 85.6027 20.5578 85.9867 20.7071 86.36C20.8565 86.7227 21.0165 87.1067 21.1871 87.512H21.2511C21.4218 87.1067 21.5871 86.7227 21.7471 86.36C21.9071 85.9867 22.0618 85.6027 22.2111 85.208L23.3471 82.536H25.2831L22.1311 89.112V93H20.2751ZM28.9811 93.192C28.2558 93.192 27.5998 93.032 27.0131 92.712C26.4265 92.3813 25.9625 91.912 25.6211 91.304C25.2798 90.6853 25.1091 89.944 25.1091 89.08C25.1091 88.2267 25.2798 87.4907 25.6211 86.872C25.9731 86.2533 26.4265 85.7787 26.9811 85.448C27.5358 85.1173 28.1171 84.952 28.7251 84.952C29.4398 84.952 30.0371 85.112 30.5171 85.432C30.9971 85.7413 31.3598 86.1787 31.6051 86.744C31.8505 87.2987 31.9731 87.944 31.9731 88.68C31.9731 89.064 31.9465 89.3627 31.8931 89.576H26.9011C26.9865 90.2693 27.2371 90.808 27.6531 91.192C28.0691 91.576 28.5918 91.768 29.2211 91.768C29.5625 91.768 29.8771 91.72 30.1651 91.624C30.4638 91.5173 30.7571 91.3733 31.0451 91.192L31.6691 92.344C31.2958 92.5893 30.8798 92.792 30.4211 92.952C29.9625 93.112 29.4825 93.192 28.9811 93.192ZM26.8851 88.328H30.3731C30.3731 87.72 30.2398 87.2453 29.9731 86.904C29.7065 86.552 29.3065 86.376 28.7731 86.376C28.3145 86.376 27.9038 86.5467 27.5411 86.888C27.1891 87.2187 26.9705 87.6987 26.8851 88.328ZM35.5225 93.192C34.8718 93.192 34.4078 92.9947 34.1305 92.6C33.8638 92.2053 33.7305 91.6667 33.7305 90.984V81.704H35.5705V91.08C35.5705 91.304 35.6132 91.464 35.6985 91.56C35.7838 91.6453 35.8745 91.688 35.9705 91.688C36.0132 91.688 36.0505 91.688 36.0825 91.688C36.1252 91.6773 36.1838 91.6667 36.2585 91.656L36.4985 93.032C36.3918 93.0747 36.2532 93.112 36.0825 93.144C35.9225 93.176 35.7358 93.192 35.5225 93.192ZM39.8663 93.192C39.2156 93.192 38.7516 92.9947 38.4743 92.6C38.2076 92.2053 38.0743 91.6667 38.0743 90.984V81.704H39.9143V91.08C39.9143 91.304 39.9569 91.464 40.0423 91.56C40.1276 91.6453 40.2183 91.688 40.3143 91.688C40.3569 91.688 40.3943 91.688 40.4263 91.688C40.4689 91.6773 40.5276 91.6667 40.6023 91.656L40.8423 93.032C40.7356 93.0747 40.5969 93.112 40.4263 93.144C40.2663 93.176 40.0796 93.192 39.8663 93.192ZM45.634 93.192C44.9833 93.192 44.3753 93.032 43.81 92.712C43.2447 92.3813 42.786 91.912 42.434 91.304C42.082 90.6853 41.906 89.944 41.906 89.08C41.906 88.2053 42.082 87.464 42.434 86.856C42.786 86.2373 43.2447 85.768 43.81 85.448C44.3753 85.1173 44.9833 84.952 45.634 84.952C46.2953 84.952 46.9087 85.1173 47.474 85.448C48.0393 85.768 48.498 86.2373 48.85 86.856C49.202 87.464 49.378 88.2053 49.378 89.08C49.378 89.944 49.202 90.6853 48.85 91.304C48.498 91.912 48.0393 92.3813 47.474 92.712C46.9087 93.032 46.2953 93.192 45.634 93.192ZM45.634 91.688C46.21 91.688 46.6633 91.448 46.994 90.968C47.3247 90.488 47.49 89.8587 47.49 89.08C47.49 88.2907 47.3247 87.656 46.994 87.176C46.6633 86.696 46.21 86.456 45.634 86.456C45.058 86.456 44.6047 86.696 44.274 87.176C43.954 87.656 43.794 88.2907 43.794 89.08C43.794 89.8587 43.954 90.488 44.274 90.968C44.6047 91.448 45.058 91.688 45.634 91.688ZM52.4015 93L50.3215 85.144H52.1775L53.1215 89.224C53.2068 89.5973 53.2762 89.9707 53.3295 90.344C53.3935 90.7173 53.4628 91.096 53.5375 91.48H53.6015C53.6762 91.096 53.7508 90.7173 53.8255 90.344C53.9108 89.96 54.0015 89.5867 54.0975 89.224L55.1215 85.144H56.8015L57.8415 89.224C57.9375 89.5973 58.0282 89.9707 58.1135 90.344C58.1988 90.7173 58.2842 91.096 58.3695 91.48H58.4335C58.5082 91.096 58.5775 90.7173 58.6415 90.344C58.7055 89.9707 58.7748 89.5973 58.8495 89.224L59.7935 85.144H61.5215L59.5215 93H57.3295L56.4175 89.336C56.3322 88.9627 56.2522 88.5947 56.1775 88.232C56.1028 87.8587 56.0228 87.464 55.9375 87.048H55.8735C55.7988 87.464 55.7242 87.8587 55.6495 88.232C55.5748 88.6053 55.4948 88.9787 55.4095 89.352L54.5135 93H52.4015ZM65.2663 93.192C64.7329 93.192 64.1996 93.0907 63.6663 92.888C63.1329 92.6747 62.6743 92.4133 62.2903 92.104L63.1543 90.92C63.5063 91.1867 63.8583 91.4 64.2103 91.56C64.5623 91.72 64.9356 91.8 65.3303 91.8C65.7569 91.8 66.0716 91.7093 66.2743 91.528C66.4769 91.3467 66.5783 91.1227 66.5783 90.856C66.5783 90.632 66.4929 90.4507 66.3223 90.312C66.1623 90.1627 65.9543 90.0347 65.6983 89.928C65.4423 89.8107 65.1756 89.6987 64.8983 89.592C64.5569 89.464 64.2156 89.3093 63.8743 89.128C63.5436 88.936 63.2716 88.696 63.0583 88.408C62.8449 88.1093 62.7383 87.7413 62.7383 87.304C62.7383 86.6107 62.9943 86.0453 63.5063 85.608C64.0183 85.1707 64.7116 84.952 65.5863 84.952C66.1409 84.952 66.6369 85.048 67.0743 85.24C67.5116 85.432 67.8903 85.6507 68.2103 85.896L67.3623 87.016C67.0849 86.8133 66.8023 86.6533 66.5143 86.536C66.2369 86.408 65.9436 86.344 65.6343 86.344C65.2396 86.344 64.9463 86.4293 64.7543 86.6C64.5623 86.76 64.4663 86.9627 64.4663 87.208C64.4663 87.5173 64.6263 87.752 64.9463 87.912C65.2663 88.072 65.6396 88.2267 66.0663 88.376C66.4289 88.504 66.7809 88.664 67.1223 88.856C67.4636 89.0373 67.7463 89.2773 67.9703 89.576C68.2049 89.8747 68.3223 90.2693 68.3223 90.76C68.3223 91.432 68.0609 92.008 67.5383 92.488C67.0156 92.9573 66.2583 93.192 65.2663 93.192Z" fill="#3B4549"/>
<defs>
<filter id="filter0_d_3_85" x="0" y="0" width="80" height="80" filterUnits="userSpaceOnUse" color-interpolation-filters="sRGB">
<feFlood flood-opacity="0" result="BackgroundImageFix"/>
<feColorMatrix in="SourceAlpha" type="matrix" values="0 0 0 0 0 0 0 0 0 0 0 0 0 0 0 0 0 0 127 0" result="hardAlpha"/>
<feOffset dy="4"/>
<feGaussianBlur stdDeviation="2"/>
<feComposite in2="hardAlpha" operator="out"/>
<feColorMatrix type="matrix" values="0 0 0 0 0 0 0 0 0 0 0 0 0 0 0 0 0 0 0.25 0"/>
<feBlend mode="normal" in2="BackgroundImageFix" result="effect1_dropShadow_3_85"/>
<feBlend mode="normal" in="SourceGraphic" in2="effect1_dropShadow_3_85" result="shape"/>
</filter>
</defs>
</svg>
