<svg xmlns="http://www.w3.org/2000/svg" viewBox="0 0 201.45 201.62"><defs><style>.cls-1{fill:#722878;stroke:#57205c;stroke-miterlimit:10;}.cls-2{fill:#fff200;}</style></defs><title>Asset 1</title><g id="Layer_2" data-name="Layer 2"><g id="Layer_4" data-name="Layer 4"><path class="cls-1" d="M97.27,75.51s-.31-1.08-.81-3c-.26-.95-.53-2.11-.86-3.43s-.67-2.82-1-4.46-.78-3.4-1.15-5.28l-1.21-5.9c-.78-4.1-1.59-8.48-2.3-12.86s-1.39-8.77-2-12.89l-.81-5.94a50.3,50.3,0,0,1-.52-5.34,32.94,32.94,0,0,1,.65-8.12c.22-1,.46-1.78.64-2.31s.31-.83.31-.83A7.78,7.78,0,0,1,101.78,4s.18.26.45.76.65,1.23,1,2.17a32.94,32.94,0,0,1,2.07,7.88,50.3,50.3,0,0,1,.43,5.35l.25,6c.14,4.16.27,8.59.32,13s0,8.89,0,13.06l-.15,6c0,1.91-.13,3.73-.2,5.4s-.14,3.21-.24,4.57-.15,2.55-.24,3.53c-.16,2-.27,3.08-.27,3.08a4.08,4.08,0,0,1-8,.71Z"/><path class="cls-1" d="M89.6,77.34s-.51-1-1.36-2.78c-.43-.88-.92-2-1.49-3.21s-1.19-2.65-1.87-4.18-1.41-3.2-2.13-5l-2.31-5.57c-1.55-3.88-3.17-8-4.7-12.19s-3-8.35-4.39-12.28l-1.92-5.68a50.3,50.3,0,0,1-1.52-5.14,32.94,32.94,0,0,1-.9-8.1c0-1,.12-1.83.19-2.39s.15-.87.15-.87A7.78,7.78,0,0,1,80.47,6.23s.22.22.59.66S81.92,8,82.48,8.82A32.94,32.94,0,0,1,86,16.16a50.31,50.31,0,0,1,1.44,5.17l1.38,5.83c.93,4.05,1.89,8.39,2.78,12.74s1.73,8.72,2.47,12.83l1,5.94c.33,1.89.58,3.69.83,5.34s.47,3.18.63,4.53.33,2.53.43,3.51c.22,2,.32,3.08.32,3.08a4.08,4.08,0,0,1-7.69,2.21Z"/><path class="cls-1" d="M83.55,81.26s-.77-.82-2.08-2.29c-.66-.73-1.42-1.64-2.32-2.67s-1.88-2.21-2.95-3.5S74,70.1,72.79,68.6L69,63.88c-2.55-3.3-5.26-6.84-7.88-10.42s-5.21-7.19-7.6-10.59l-3.41-4.93a50.28,50.28,0,0,1-2.88-4.53,32.94,32.94,0,0,1-3.09-7.53c-.26-1-.39-1.8-.48-2.35s-.1-.88-.1-.88a7.78,7.78,0,0,1,11.57-7.23s.28.15.75.47,1.13.8,1.9,1.46a33,33,0,0,1,5.42,6.08A50.31,50.31,0,0,1,66,28L69,33.23c2,3.64,4.13,7.54,6.19,11.48s4.07,7.91,5.91,11.65l2.6,5.44c.84,1.72,1.58,3.38,2.27,4.91s1.33,2.92,1.86,4.18,1,2.34,1.38,3.26C89.93,76,90.33,77,90.33,77a4.08,4.08,0,0,1-6.79,4.24Z"/><path class="cls-1" d="M78.81,86.69s-1-.58-2.63-1.63c-.84-.52-1.82-1.18-3-1.93s-2.41-1.61-3.8-2.56-2.89-2-4.44-3.08L60.07,74c-3.37-2.47-6.94-5.12-10.45-7.85s-7-5.47-10.23-8.09l-4.64-3.8a50.29,50.29,0,0,1-4-3.56,32.94,32.94,0,0,1-5.05-6.39c-.52-.87-.87-1.62-1.11-2.13s-.33-.82-.33-.82a7.78,7.78,0,0,1,9.13-10.14s.31.07.85.25,1.31.46,2.23.88a32.94,32.94,0,0,1,6.88,4.36,50.28,50.28,0,0,1,4,3.62l4.26,4.21c2.94,2.95,6,6.11,9.11,9.33s6.09,6.48,8.9,9.57l4,4.51C74.84,69.37,76,70.76,77.09,72s2.08,2.44,2.94,3.51,1.62,2,2.23,2.75c1.22,1.54,1.9,2.44,1.9,2.44a4.08,4.08,0,0,1-5.35,5.95Z"/><path class="cls-1" d="M75.75,93.22s-1.09-.29-3-.85c-.95-.27-2.08-.64-3.38-1s-2.76-.88-4.36-1.41-3.32-1.09-5.12-1.74l-5.68-2c-3.92-1.45-8.08-3-12.2-4.66s-8.23-3.34-12.06-5l-5.5-2.37a50.29,50.29,0,0,1-4.84-2.31A32.94,32.94,0,0,1,13,67.11c-.74-.7-1.28-1.32-1.65-1.74s-.55-.69-.55-.69a7.78,7.78,0,0,1,6-12.26s.32,0,.88,0,1.39.08,2.39.23a32.94,32.94,0,0,1,7.82,2.29,50.29,50.29,0,0,1,4.8,2.39l5.26,2.88c3.63,2,7.5,4.2,11.33,6.45s7.64,4.55,11.19,6.75l5.08,3.24c1.62,1,3.13,2,4.52,3s2.68,1.77,3.79,2.56,2.1,1.45,2.9,2c1.6,1.15,2.5,1.82,2.5,1.82a4.08,4.08,0,0,1-3.51,7.19Z"/><path class="cls-1" d="M74.6,100.33s-1.13,0-3.09,0c-1,0-2.17,0-3.54-.06s-2.9-.09-4.58-.16S59.9,100,58,99.86l-6-.37c-4.16-.31-8.6-.67-13-1.12s-8.83-.94-13-1.44l-5.94-.76a50.3,50.3,0,0,1-5.29-.89A32.94,32.94,0,0,1,7.1,92.54c-.9-.47-1.6-.91-2.07-1.22s-.72-.52-.72-.52A7.78,7.78,0,0,1,6.68,77.37s.3-.1.85-.24,1.35-.31,2.36-.44a32.94,32.94,0,0,1,8.14,0,50.3,50.3,0,0,1,5.28,1L29.16,79c4.05.94,8.37,2,12.67,3.08s8.6,2.27,12.61,3.4l5.78,1.71c1.84.53,3.57,1.09,5.16,1.6s3.06,1,4.35,1.42,2.42.81,3.35,1.15c1.85.66,2.9,1.07,2.9,1.07a4.08,4.08,0,0,1-1.39,7.88Z"/><path class="cls-1" d="M75.47,107.49s-1.08.33-3,.86c-.95.27-2.1.56-3.42.91s-2.81.72-4.44,1.11-3.39.84-5.26,1.24l-5.88,1.3c-4.09.85-8.45,1.73-12.82,2.51s-8.75,1.53-12.85,2.19l-5.92.9a50.29,50.29,0,0,1-5.33.6,32.94,32.94,0,0,1-8.13-.52c-1-.2-1.79-.44-2.32-.6s-.83-.3-.83-.3a7.78,7.78,0,0,1-1.43-13.57s.26-.18.75-.47,1.22-.67,2.15-1.07a32.94,32.94,0,0,1,7.84-2.2,50.29,50.29,0,0,1,5.34-.52l6-.35c4.15-.21,8.59-.41,13-.53s8.89-.19,13.06-.21l6,.05c1.91,0,3.73.07,5.41.11s3.21.09,4.58.16,2.55.11,3.53.18c2,.12,3.09.22,3.09.22a4.08,4.08,0,0,1,.84,8Z"/><path class="cls-1" d="M78.27,114.13s-.95.62-2.62,1.65c-.83.52-1.86,1.12-3,1.82s-2.51,1.46-4,2.29-3,1.74-4.72,2.64l-5.3,2.87c-3.69,1.94-7.65,4-11.63,5.95s-8,3.88-11.75,5.65l-5.45,2.5a50.3,50.3,0,0,1-5,2,32.94,32.94,0,0,1-8,1.74c-1,.08-1.84.07-2.4.06s-.88-.06-.88-.06A7.78,7.78,0,0,1,8.5,130.65s.2-.24.59-.65,1-1,1.77-1.62a32.94,32.94,0,0,1,6.93-4.28,50.3,50.3,0,0,1,5-2l5.66-2c3.93-1.35,8.14-2.76,12.38-4.1s8.49-2.63,12.5-3.8l5.81-1.61c1.84-.53,3.6-1,5.23-1.38s3.11-.8,4.44-1.1,2.48-.6,3.45-.8c1.92-.42,3-.64,3-.64a4.08,4.08,0,0,1,3,7.42Z"/><path class="cls-1" d="M82.8,119.75s-.74.85-2.06,2.3c-.66.73-1.48,1.59-2.42,2.59s-2,2.1-3.18,3.3-2.43,2.51-3.81,3.84L67,136c-3,2.89-6.25,5.94-9.54,8.92s-6.61,5.94-9.74,8.67l-4.55,3.91a50.29,50.29,0,0,1-4.2,3.34,32.94,32.94,0,0,1-7.17,3.86c-1,.36-1.75.58-2.29.72s-.86.19-.86.19a7.78,7.78,0,0,1-8.4-10.75s.12-.29.39-.79.68-1.21,1.26-2a32.94,32.94,0,0,1,5.48-6,50.29,50.29,0,0,1,4.25-3.27l4.89-3.46c3.41-2.38,7.07-4.9,10.77-7.35s7.44-4.87,11-7.1l5.14-3.15c1.62-1,3.2-1.92,4.65-2.77s2.77-1.63,4-2.29,2.22-1.26,3.09-1.72c1.73-.93,2.74-1.45,2.74-1.45a4.08,4.08,0,0,1,4.93,6.31Z"/><path class="cls-1" d="M88.69,123.89s-.48,1-1.35,2.78c-.43.89-1,1.93-1.61,3.15s-1.35,2.57-2.15,4S81.94,137,81,138.61l-3,5.24c-2.1,3.6-4.37,7.43-6.71,11.21s-4.71,7.53-7,11l-3.29,5a50.29,50.29,0,0,1-3.12,4.36,32.94,32.94,0,0,1-5.83,5.69c-.81.61-1.52,1-2,1.33s-.78.42-.78.42a7.78,7.78,0,0,1-11-8s0-.31.16-.87.32-1.35.64-2.31a33,33,0,0,1,3.61-7.3,50.3,50.3,0,0,1,3.19-4.32l3.75-4.68c2.62-3.23,5.44-6.65,8.32-10s5.81-6.73,8.59-9.85l4.07-4.44c1.28-1.42,2.55-2.73,3.7-3.94s2.21-2.33,3.18-3.29,1.79-1.82,2.5-2.5c1.41-1.37,2.23-2.14,2.23-2.14a4.08,4.08,0,0,1,6.47,4.7Z"/><path class="cls-1" d="M95.51,126.25s-.18,1.11-.53,3c-.17,1-.42,2.13-.68,3.47s-.59,2.84-.95,4.48-.74,3.42-1.2,5.27l-1.41,5.86c-1,4-2.15,8.35-3.36,12.62s-2.46,8.53-3.67,12.51l-1.78,5.72a50.28,50.28,0,0,1-1.8,5.05,32.94,32.94,0,0,1-4,7.08c-.62.81-1.17,1.41-1.56,1.83s-.63.62-.63.62a7.78,7.78,0,0,1-12.82-4.67s0-.31-.09-.88-.07-1.39,0-2.4a32.94,32.94,0,0,1,1.46-8,50.29,50.29,0,0,1,1.87-5l2.31-5.53c1.63-3.83,3.4-7.9,5.23-11.94s3.73-8.07,5.54-11.83l2.69-5.39c.84-1.72,1.69-3.32,2.47-4.81s1.48-2.85,2.15-4,1.22-2.24,1.71-3.1c1-1.71,1.55-2.68,1.55-2.68a4.08,4.08,0,0,1,7.52,2.74Z"/><path class="cls-1" d="M102.71,126.65s.14,1.12.33,3.08c.1,1,.19,2.16.31,3.53s.22,2.89.32,4.57.23,3.49.3,5.4l.26,6c.13,4.17.23,8.62.25,13.06s0,8.88-.08,13l-.14,6a50.29,50.29,0,0,1-.33,5.35,32.94,32.94,0,0,1-1.93,7.91c-.37.95-.74,1.68-1,2.19s-.44.77-.44.77a7.78,7.78,0,0,1-13.61-1s-.13-.29-.33-.82-.45-1.31-.68-2.3a32.94,32.94,0,0,1-.81-8.1,50.31,50.31,0,0,1,.42-5.35l.7-6c.51-4.13,1.09-8.53,1.74-12.92s1.36-8.79,2.06-12.9l1.1-5.93c.33-1.88.71-3.66,1.05-5.3s.64-3.15,1-4.48.55-2.49.79-3.45c.46-1.91.76-3,.76-3a4.08,4.08,0,0,1,8,.56Z"/><path class="cls-1" d="M109.73,125s.44,1,1.17,2.87c.37.91.78,2,1.27,3.3s1,2.72,1.57,4.3,1.19,3.29,1.78,5.11l1.91,5.71c1.27,4,2.6,8.22,3.84,12.49s2.44,8.54,3.52,12.55l1.52,5.8a50.29,50.29,0,0,1,1.16,5.24,33,33,0,0,1,.33,8.14c-.09,1-.25,1.82-.35,2.37s-.21.86-.21.86a7.78,7.78,0,0,1-13.34,2.84s-.21-.24-.54-.7-.79-1.14-1.29-2a32.94,32.94,0,0,1-3-7.57,50.27,50.27,0,0,1-1.07-5.26l-1-5.91c-.64-4.11-1.3-8.5-1.89-12.9s-1.12-8.82-1.57-13l-.58-6c-.2-1.9-.32-3.72-.45-5.39s-.25-3.2-.32-4.57-.15-2.55-.19-3.53c-.08-2-.1-3.09-.1-3.09a4.08,4.08,0,0,1,7.83-1.66Z"/><path class="cls-1" d="M116,121.56s.71.88,1.91,2.43c.61.77,1.31,1.74,2.13,2.83s1.72,2.34,2.69,3.7,2,2.83,3.12,4.42l3.41,5c2.32,3.47,4.77,7.19,7.13,10.95s4.7,7.54,6.85,11.1l3.06,5.15a50.29,50.29,0,0,1,2.56,4.72,32.94,32.94,0,0,1,2.56,7.73c.19,1,.26,1.82.32,2.38s0,.88,0,.88a7.78,7.78,0,0,1-12,6.4s-.26-.17-.71-.52-1.07-.88-1.8-1.59a33,33,0,0,1-5-6.45,50.3,50.3,0,0,1-2.48-4.76l-2.56-5.42c-1.75-3.77-3.6-7.81-5.37-11.88s-3.5-8.17-5.09-12L114.57,141c-.72-1.78-1.34-3.48-1.92-5.06s-1.12-3-1.56-4.3-.85-2.41-1.15-3.34c-.62-1.87-.95-2.94-.95-2.94a4.08,4.08,0,0,1,7.06-3.76Z"/><path class="cls-1" d="M121.16,116.47s.92.65,2.51,1.81c.8.58,1.73,1.31,2.82,2.13s2.3,1.78,3.61,2.82,2.75,2.16,4.21,3.39l4.65,3.83c3.18,2.7,6.56,5.59,9.87,8.56s6.59,5.95,9.64,8.78l4.36,4.11a50.3,50.3,0,0,1,3.76,3.83,32.94,32.94,0,0,1,4.59,6.73c.46.91.76,1.68,1,2.2s.28.84.28.84a7.78,7.78,0,0,1-9.81,9.48s-.3-.09-.83-.31-1.27-.55-2.17-1A33,33,0,0,1,153,168.8a50.31,50.31,0,0,1-3.7-3.89l-4-4.5c-2.72-3.14-5.61-6.52-8.44-9.94s-5.62-6.89-8.21-10.17l-3.67-4.78c-1.18-1.51-2.24-3-3.24-4.33s-1.91-2.58-2.69-3.71-1.48-2.08-2-2.9C116,123,115.4,122,115.4,122a4.08,4.08,0,0,1,5.76-5.56Z"/><path class="cls-1" d="M124.66,110.17s1.07.37,2.91,1.05c.93.34,2,.78,3.3,1.27s2.7,1.07,4.25,1.71,3.24,1.32,5,2.09l5.53,2.4c3.81,1.72,7.85,3.57,11.85,5.5s8,3.9,11.69,5.78l5.33,2.75a50.28,50.28,0,0,1,4.67,2.65,32.94,32.94,0,0,1,6.27,5.2c.69.75,1.19,1.4,1.53,1.85s.5.73.5.73A7.78,7.78,0,0,1,180.63,155s-.32,0-.88-.07-1.38-.18-2.37-.4a32.94,32.94,0,0,1-7.64-2.83,50.3,50.3,0,0,1-4.62-2.72l-5-3.24c-3.48-2.27-7.19-4.72-10.85-7.23s-7.3-5.07-10.69-7.51l-4.84-3.58c-1.55-1.13-3-2.25-4.31-3.27s-2.55-2-3.61-2.82-2-1.59-2.75-2.23c-1.51-1.25-2.37-2-2.37-2a4.08,4.08,0,0,1,4-6.93Z"/><path class="cls-1" d="M126.3,103.15s1.13.06,3.09.21c1,.07,2.16.19,3.52.31s2.89.29,4.55.47,3.47.37,5.37.64l6,.79c4.13.6,8.53,1.27,12.91,2s8.74,1.55,12.83,2.34l5.88,1.18a50.3,50.3,0,0,1,5.21,1.26,32.94,32.94,0,0,1,7.46,3.27c.87.53,1.53,1,2,1.36s.68.57.68.57a7.78,7.78,0,0,1-3.3,13.24s-.31.08-.87.18-1.37.21-2.39.27a32.94,32.94,0,0,1-8.12-.61,50.29,50.29,0,0,1-5.19-1.34l-5.74-1.72c-4-1.22-8.21-2.55-12.42-4s-8.42-2.86-12.35-4.27l-5.64-2.11c-1.8-.66-3.48-1.34-5-2s-3-1.18-4.24-1.72-2.36-1-3.26-1.38c-1.8-.79-2.82-1.27-2.82-1.27a4.08,4.08,0,0,1,1.94-7.76Z"/><path class="cls-1" d="M125.94,95.95s1.1-.25,3-.65c1-.21,2.13-.41,3.47-.67s2.86-.52,4.51-.8,3.44-.6,5.34-.87l6-.89c4.14-.56,8.55-1.13,13-1.61s8.83-.92,13-1.29l6-.49a50.3,50.3,0,0,1,5.36-.23,32.94,32.94,0,0,1,8.07,1.09c1,.27,1.75.56,2.28.76s.81.36.81.36a7.78,7.78,0,0,1,.48,13.63s-.27.16-.78.41-1.26.58-2.22.92a32.94,32.94,0,0,1-8,1.65,50.3,50.3,0,0,1-5.36.15l-6-.07c-4.16-.08-8.59-.19-13-.38s-8.88-.43-13-.7l-6-.47c-1.91-.14-3.72-.33-5.38-.49s-3.2-.31-4.55-.48-2.54-.29-3.51-.43c-1.95-.26-3.06-.44-3.06-.44a4.08,4.08,0,0,1-.28-8Z"/><path class="cls-1" d="M123.6,89.12s1-.55,2.73-1.46c.87-.46,1.94-1,3.15-1.6s2.6-1.29,4.11-2,3.14-1.52,4.89-2.3l5.48-2.5c3.82-1.68,7.9-3.45,12-5.12s8.24-3.32,12.12-4.81l5.61-2.12a50.28,50.28,0,0,1,5.09-1.7,32.94,32.94,0,0,1,8.06-1.18c1,0,1.84.06,2.4.1s.88.12.88.12a7.78,7.78,0,0,1,4.22,13s-.22.23-.64.61-1.05.91-1.88,1.49a32.94,32.94,0,0,1-7.21,3.78A50.3,50.3,0,0,1,179.51,85l-5.78,1.58c-4,1.07-8.31,2.18-12.63,3.23s-8.66,2-12.73,2.92l-5.9,1.2c-1.87.4-3.66.71-5.31,1s-3.16.58-4.51.79-2.52.42-3.49.56c-1.94.29-3.06.42-3.06.42a4.08,4.08,0,0,1-2.47-7.61Z"/><path class="cls-1" d="M119.48,83.21s.8-.8,2.22-2.15c.71-.68,1.59-1.48,2.59-2.41s2.15-2,3.4-3.07,2.6-2.33,4.07-3.56l4.58-3.91c3.21-2.67,6.65-5.49,10.14-8.24s7-5.46,10.32-8l4.81-3.58a50.3,50.3,0,0,1,4.42-3,32.94,32.94,0,0,1,7.42-3.36c1-.29,1.78-.45,2.33-.56s.87-.13.87-.13a7.78,7.78,0,0,1,7.63,11.31s-.14.28-.44.76-.76,1.16-1.4,2a32.94,32.94,0,0,1-5.89,5.62,50.29,50.29,0,0,1-4.47,3L167,67c-3.57,2.14-7.39,4.39-11.25,6.59S148,77.9,144.28,79.87l-5.34,2.78c-1.69.9-3.32,1.69-4.83,2.44s-2.87,1.43-4.12,2-2.31,1.1-3.21,1.5C125,89.4,124,89.84,124,89.84a4.08,4.08,0,0,1-4.47-6.63Z"/><path class="cls-1" d="M113.89,78.66s.55-1,1.54-2.68c.49-.85,1.12-1.86,1.82-3s1.53-2.47,2.42-3.89,1.86-3,2.93-4.55l3.33-5c2.35-3.45,4.88-7.11,7.48-10.71s5.23-7.18,7.73-10.5l3.63-4.77a50.29,50.29,0,0,1,3.42-4.14,33,33,0,0,1,6.21-5.27c.86-.55,1.59-.93,2.09-1.18s.81-.36.81-.36a7.78,7.78,0,0,1,10.45,8.77s-.06.31-.22.86-.41,1.33-.8,2.26a32.94,32.94,0,0,1-4.11,7,50.29,50.29,0,0,1-3.48,4.08L155.06,50c-2.84,3-5.89,6.26-9,9.43s-6.26,6.31-9.25,9.22l-4.37,4.15c-1.38,1.33-2.73,2.54-4,3.67s-2.37,2.17-3.41,3.06-1.91,1.69-2.67,2.32c-1.5,1.27-2.38,2-2.38,2a4.08,4.08,0,0,1-6.13-5.14Z"/><path class="cls-1" d="M107.25,75.83s.25-1.1.74-3c.24-1,.56-2.1.92-3.42s.79-2.79,1.26-4.4,1-3.36,1.56-5.18l1.81-5.75c1.31-4,2.73-8.18,4.23-12.36s3-8.34,4.53-12.23l2.18-5.58A50.3,50.3,0,0,1,126.63,19a33,33,0,0,1,4.52-6.78c.67-.76,1.27-1.33,1.68-1.71s.67-.57.67-.57A7.78,7.78,0,0,1,146,15.48s0,.31,0,.88,0,1.39-.15,2.4a33,33,0,0,1-2,7.89,50.29,50.29,0,0,1-2.22,4.88l-2.69,5.36c-1.89,3.7-3.94,7.64-6.05,11.55s-4.28,7.79-6.35,11.42l-3.06,5.19c-1,1.66-1.92,3.2-2.8,4.62s-1.68,2.74-2.43,3.88-1.37,2.15-1.93,3c-1.09,1.64-1.74,2.56-1.74,2.56a4.08,4.08,0,0,1-7.31-3.25Z"/><path class="cls-1" d="M101.69,75s0-1.13.07-3.09c0-1,.1-2.17.16-3.54s.16-2.9.28-4.57.22-3.49.4-5.39l.53-6c.42-4.15.89-8.58,1.46-13s1.17-8.8,1.78-12.92l.92-5.92a50.3,50.3,0,0,1,1-5.26,33,33,0,0,1,2.94-7.59c.49-.89,1-1.57,1.27-2s.54-.7.54-.7a7.78,7.78,0,0,1,13.37,2.72s.09.3.22.86.27,1.36.37,2.37a32.94,32.94,0,0,1-.26,8.14,50.31,50.31,0,0,1-1.11,5.25l-1.47,5.81c-1,4-2.19,8.31-3.41,12.58S118.27,51.22,117,55.2l-1.86,5.73c-.58,1.82-1.19,3.54-1.74,5.12s-1,3-1.53,4.31-.88,2.4-1.24,3.32c-.71,1.83-1.14,2.88-1.14,2.88a4.08,4.08,0,0,1-7.84-1.6Z"/><circle class="cls-2" cx="100.53" cy="100.83" r="30.92"/></g></g></svg>