<svg xmlns="http://www.w3.org/2000/svg" xmlns:xlink="http://www.w3.org/1999/xlink" viewBox="0 0 199.38 190.87"><defs><style>.cls-1{fill:url(#linear-gradient);}.cls-2{fill:url(#linear-gradient-2);}.cls-3{fill:url(#linear-gradient-3);}.cls-4{fill:url(#linear-gradient-4);}.cls-5{fill:url(#linear-gradient-5);}.cls-6{fill:url(#radial-gradient);}</style><linearGradient id="linear-gradient" x1="96.01" y1="440.35" x2="184.5" y2="440.35" gradientTransform="matrix(-0.25, -0.97, -0.97, 0.25, 562.4, 67.49)" gradientUnits="userSpaceOnUse"><stop offset="0" stop-color="#732a43"/><stop offset="0.53" stop-color="#721c3e"/><stop offset="1" stop-color="#71153b"/></linearGradient><linearGradient id="linear-gradient-2" x1="103.83" y1="439.17" x2="192.32" y2="439.17" gradientTransform="matrix(-1, -0.06, -0.06, 1, 218.26, -347.57)" xlink:href="#linear-gradient"/><linearGradient id="linear-gradient-3" x1="105.12" y1="431.37" x2="193.61" y2="431.37" gradientTransform="matrix(-0.37, 0.93, 0.93, 0.37, -282.82, -148.54)" xlink:href="#linear-gradient"/><linearGradient id="linear-gradient-4" x1="98.1" y1="427.73" x2="186.59" y2="427.73" gradientTransform="matrix(0.77, 0.63, 0.63, -0.77, -248.38, 389.53)" xlink:href="#linear-gradient"/><linearGradient id="linear-gradient-5" x1="92.47" y1="433.28" x2="180.96" y2="433.28" gradientTransform="matrix(0.84, -0.54, -0.54, -0.84, 274, 523.04)" xlink:href="#linear-gradient"/><radialGradient id="radial-gradient" cx="98.69" cy="98.97" r="25.94" gradientUnits="userSpaceOnUse"><stop offset="0" stop-color="#ffd03f"/><stop offset="0.58" stop-color="#febe30"/><stop offset="1" stop-color="#fdb72a"/></radialGradient></defs><title>Asset 3</title><g id="Layer_2" data-name="Layer 2"><g id="radial_simetrical" data-name="radial simetrical"><path class="cls-1" d="M98.74,88.46S98.88,76.64,80,67.32c0,0-16.62-12-7.3-48.51,0,0,8.26-27.75,27-15.84,18.73-11.91,27,15.84,27,15.84,9.32,36.49-7.3,48.51-7.3,48.51-18.89,9.31-18.74,21.13-18.74,21.13Z"/><path class="cls-2" d="M87.19,98.23S76,94.44,61.3,109.53c0,0-16.57,12.09-48.39-8.05,0,0-23.84-16.44-6.73-30.57C.65,49.41,29.59,50.13,29.59,50.13c37.58,2.41,43.88,21.93,43.88,21.93,3,20.84,14.31,24.36,14.31,24.36Z"/><path class="cls-3" d="M92.92,112.23s-7.06,9.48,2.74,28.11c0,0,6.38,19.5-22.61,43.54,0,0-23,17.59-31.15-3-22.15-1.38-12.53-28.68-12.53-28.68,13.91-35,34.42-35,34.42-35,20.75,3.57,27.59-6.08,27.59-6.08Z"/><path class="cls-4" d="M108,111.11s6.83,9.65,27.59,6.08c0,0,20.51,0,34.42,35,0,0,9.63,27.31-12.53,28.68-8.15,20.64-31.15,3-31.15,3-29-24-22.61-43.54-22.61-43.54,9.81-18.63,2.74-28.11,2.74-28.11Z"/><path class="cls-5" d="M111.6,96.42s11.29-3.52,14.31-24.36c0,0,6.3-19.52,43.88-21.93,0,0,28.95-.72,23.41,20.78,17.11,14.13-6.73,30.57-6.73,30.57-31.82,20.14-48.39,8.05-48.39,8.05-14.69-15.08-25.89-11.3-25.89-11.3Z"/><circle class="cls-6" cx="98.69" cy="98.97" r="25.94"/></g></g></svg>