<svg xmlns="http://www.w3.org/2000/svg" viewBox="0 0 198.82 190.59"><defs><style>.cls-1{fill:#9e8b6b;}.cls-2{fill:#8f1a22;}.cls-3{fill:#be1e2d;}</style></defs><title>Asset 2</title><g id="Layer_2" data-name="Layer 2"><g id="Layer_4" data-name="Layer 4"><path class="cls-1" d="M89.6,21.48l.27-.48c.1-.16.16-.34.27-.57l.08-.17c0-.06,0-.14.08-.12l.21,0c.15-.06.36-.07.46-.23a3.64,3.64,0,0,0,.22-.61,3.45,3.45,0,0,0,0-.74,3.88,3.88,0,0,0-.27-.81,5.36,5.36,0,0,0-1.49-1.57,18.93,18.93,0,0,0-2.37-1.59,33.49,33.49,0,0,0-6.94-2.85A49.3,49.3,0,0,0,70.92,10a63.36,63.36,0,0,0-10.64-.19A68.51,68.51,0,0,0,49,11.47a60,60,0,0,0-11,3.82,49.61,49.61,0,0,0-9.7,5.94,41.66,41.66,0,0,0-7.51,7.71A39.9,39.9,0,0,0,15.9,37.6a46.17,46.17,0,0,0-2.56,8.64,57,57,0,0,0-.9,7.7c-.09,2.33-.06,4.38,0,6.07l.16,2.26.24,1.67c.15.9.24,1.38.24,1.38l0,.15A6.54,6.54,0,1,1,.31,68a6.94,6.94,0,0,1-.12-1.28s0-.57,0-1.64S.06,62.44,0,60.44,0,56,.2,53.18a69,69,0,0,1,1.38-9.43A56.16,56.16,0,0,1,5.22,32.92,50.62,50.62,0,0,1,12,22a52.68,52.68,0,0,1,9.88-9.35,60.91,60.91,0,0,1,12-6.74A70.07,70.07,0,0,1,46.81,1.86,79,79,0,0,1,59.71.12,81.06,81.06,0,0,1,71.88.36a67.53,67.53,0,0,1,10.89,2,43.23,43.23,0,0,1,9.09,3.54,28.89,28.89,0,0,1,3.66,2.35c1.11.82,2.06,1.76,3,2.54.47.43.94.83,1.39,1.21s.87.81,1.3,1.18.8.78,1.17,1.14a5.14,5.14,0,0,1,.57.65l.55.65.47.61a.5.5,0,0,0,.18.18l.16.11c.21.14.36.26.52.35l.48.27A11.54,11.54,0,1,1,89.6,21.48Z"/><path class="cls-2" d="M186.07,165.3c-15.61,2-31.44,8.61-47.51-.67-4.14-2.39-17.87-13.85-7.75-31.22s26.77-11.3,30.91-8.91C177.8,133.77,180,150.78,186.07,165.3Z"/><path class="cls-2" d="M91.77,190.59c14.52-6.08,31.53-8.28,40.8-24.35,2.39-4.14,8.54-20.94-8.91-30.91s-28.83,3.61-31.22,7.75C83.16,159.16,89.76,175,91.77,190.59Z"/><path class="cls-3" d="M142.23,190.3c-22-10.82-37.6-36.81-37.6-36.81s-24.11,25.59-48.85.32C93.38,123.18,80,99,74.77,71.57s.94-43.48,22.41-49.24,34.86,5.08,44,31.41,9.72,54,57.59,61.7c-8.77,34.27-42.45,24.17-42.45,24.17S155.89,169.92,142.23,190.3Z"/></g></g></svg>